<svg width="242" height="242" xmlns="http://www.w3.org/2000/svg">
 <metadata id="metadata2">image/svg+xml</metadata>

 <g>
  <title>background</title>
  <rect fill="none" id="canvas_background" height="244" width="244" y="-1" x="-1"/>
 </g>
 <g>
  <title>Layer 1</title>
  <circle cx="121" cy="121" r="120" fill="#4ea4f6" id="circle11"/>
  <path d="m45.691,126.87c14.028,-7.7268 29.687,-14.176 44.318,-20.658c25.171,-10.617 50.442,-21.05 75.968,-30.763c4.9664,-1.6549 13.89,-3.2731 14.765,4.0866c-0.47934,10.418 -2.4503,20.775 -3.8021,31.132c-3.4313,22.776 -7.3975,45.474 -11.265,68.175c-1.3326,7.5618 -10.805,11.476 -16.866,6.6369c-14.566,-9.8386 -29.244,-19.582 -43.624,-29.649c-4.7105,-4.7863 -0.34239,-11.66 3.8645,-15.078c11.997,-11.823 24.72,-21.868 36.09,-34.302c3.067,-7.4061 -5.9951,-1.1645 -8.9842,0.74815c-16.424,11.318 -32.446,23.327 -49.762,33.274c-8.845,4.8689 -19.154,0.70809 -27.995,-2.0087c-7.9269,-3.2821 -19.543,-6.5888 -12.708,-11.593l0.0008,-0.00095z" fill="#fff" id="path13"/>
 </g>
</svg>