<?xml version="1.0" ?>
<svg xmlns:inkscape="http://www.inkscape.org/namespaces/inkscape" xmlns:sodipodi="http://sodipodi.sourceforge.net/DTD/sodipodi-0.dtd" xmlns="http://www.w3.org/2000/svg" width="512" height="512" viewBox="0 0 512 512" version="1.1" id="_password_peek_-_remove" sodipodi:docname="_password_peek - remove" inkscape:export-xdpi="96" inkscape:export-ydpi="96" style="fill: none; stroke: none">
   <defs/>
   <sodipodi:namedview inkscape:pagecheckerboard="true" borderlayer="true" bordercolor="#666666" pagecolor="#ffffff"/>
  <g inkscape:groupmode="layer" id="g_31" opacity="1" transform="translate(256, 256) scale(0.95, 0.95)" inkscape:label="NullLayer">
    <g inkscape:groupmode="layer" id="g_32" inkscape:label="ShapeLayer" style="">
      <g inkscape:groupmode="layer" id="g_33" inkscape:label="ShapeLayer" style="">
        <g id="g_34" style="fill-opacity:1.0;fill:rgb(158, 118, 61)">
          <path d="M 125.73,-143.021 C 145.495,-144.326 174.75,-145.446 196.922,-118.078 C 221.394,-87.87 221.865,-28.439 174.577,10.795 C 125.049,51.887 70.647,-139.38299999999998 125.73,-143.021 Z" style="fill-opacity:1.0;fill:rgb(158, 118, 61)"/>
        </g>
        <g id="g_35" style="fill-opacity:1.0;fill:rgb(237, 172, 170)">
          <path d="M 136.643,-115.866 C 136.643,-115.866 165.743,-124.371 182.613,-95.857 C 196.36,-72.622 187.914,-33.548 166.291,-15.922 C 140.575,5.039999999999999 118.91499999999999,-117.815 136.643,-115.866 Z" style="fill-opacity:1.0;fill:rgb(237, 172, 170)"/>
        </g>
        <g id="g_36" style="stroke:rgb(188, 146, 89);stroke-opacity:1.0;stroke-width:10.0;stroke-linecap:round;stroke-linejoin:round">
          <path d="M 203.905,-80.406 C 203.905,-80.406 199.07100000000003,-120.152 162.752,-130.334 " style="stroke:rgb(188, 146, 89);stroke-opacity:1.0;stroke-width:10.0;stroke-linecap:round;stroke-linejoin:round"/>
        </g>
        <g id="g_37" style="stroke:rgb(94, 66, 31);stroke-opacity:1.0;stroke-width:8.0;stroke-miterlimit:10.0;stroke-linecap:butt;stroke-linejoin:miter">
          <path d="M 125.73,-143.021 C 145.495,-144.326 174.75,-145.446 196.922,-118.078 C 221.394,-87.87 221.865,-28.439 174.577,10.795 C 125.049,51.887 70.647,-139.38299999999998 125.73,-143.021 Z" style="stroke:rgb(94, 66, 31);stroke-opacity:1.0;stroke-width:8.0;stroke-miterlimit:10.0;stroke-linecap:butt;stroke-linejoin:miter"/>
        </g>
        <g id="g_38" style="fill-opacity:1.0;fill:rgb(219, 152, 151)">
          <path d="M 130.917,-89.291 C 173.553,-111.448 189.319,-61.424 189.319,-61.424 C 189.32899999999998,-61.424 189.33,-61.434 189.34,-61.434 C 190.623,-73.862 188.733,-86.219 183.034,-95.859 C 166.17,-124.37299999999999 137.07,-115.865 137.07,-115.865 C 131.523,-116.47099999999999 129.836,-104.88199999999999 130.917,-89.291 Z" style="fill-opacity:1.0;fill:rgb(219, 152, 151)"/>
        </g>
      </g>
      <g inkscape:groupmode="layer" id="g_39" inkscape:label="ShapeLayer" style="">
        <g id="g_40" style="fill-opacity:1.0;fill:rgb(158, 118, 61);stroke:rgb(94, 66, 31);stroke-opacity:1.0;stroke-width:8.0;stroke-miterlimit:10.0;stroke-linecap:butt;stroke-linejoin:miter">
          <path d="M -115.798,-143.021 C -135.563,-144.326 -164.818,-145.446 -186.99,-118.078 C -211.46200000000002,-87.87 -211.933,-28.439 -164.645,10.795 C -115.11700000000002,51.887 -60.715,-139.38299999999998 -115.798,-143.021 Z" style="fill-opacity:1.0;fill:rgb(158, 118, 61);stroke:rgb(94, 66, 31);stroke-opacity:1.0;stroke-width:8.0;stroke-miterlimit:10.0;stroke-linecap:butt;stroke-linejoin:miter"/>
        </g>
        <g id="g_41" style="stroke:rgb(188, 146, 89);stroke-opacity:1.0;stroke-width:10.0;stroke-linecap:round;stroke-linejoin:round">
          <path d="M -194.126,-81.406 C -194.126,-81.406 -189.291,-121.152 -152.972,-131.334 " style="stroke:rgb(188, 146, 89);stroke-opacity:1.0;stroke-width:10.0;stroke-linecap:round;stroke-linejoin:round"/>
        </g>
        <g id="g_42" style="stroke:rgb(94, 66, 31);stroke-opacity:1.0;stroke-width:8.0;stroke-miterlimit:10.0;stroke-linecap:butt;stroke-linejoin:miter">
          <path d="M -115.798,-143.021 C -135.563,-144.326 -164.818,-145.446 -186.99,-118.078 C -211.46200000000002,-87.87 -211.933,-28.439 -164.645,10.795 C -115.11700000000002,51.887 -60.715,-139.38299999999998 -115.798,-143.021 Z" style="stroke:rgb(94, 66, 31);stroke-opacity:1.0;stroke-width:8.0;stroke-miterlimit:10.0;stroke-linecap:butt;stroke-linejoin:miter"/>
        </g>
        <g id="g_43" style="fill-opacity:1.0;fill:rgb(237, 172, 170)">
          <path d="M -126.711,-115.866 C -126.711,-115.866 -155.81199999999998,-124.371 -172.682,-95.857 C -186.42899999999997,-72.622 -177.983,-33.548 -156.36,-15.922 C -130.644,5.039999999999999 -108.983,-117.815 -126.711,-115.866 Z" style="fill-opacity:1.0;fill:rgb(237, 172, 170)"/>
        </g>
        <g id="g_44" style="fill-opacity:1.0;fill:rgb(219, 152, 151)">
          <path d="M -120.56,-89.291 C -163.196,-111.448 -178.963,-61.424 -178.963,-61.424 C -178.97299999999998,-61.424 -178.973,-61.434 -178.983,-61.434 C -180.266,-73.862 -178.377,-86.219 -172.678,-95.859 C -155.814,-124.37299999999999 -126.714,-115.865 -126.714,-115.865 C -121.167,-116.47099999999999 -119.479,-104.88199999999999 -120.56,-89.291 Z" style="fill-opacity:1.0;fill:rgb(219, 152, 151)"/>
        </g>
      </g>
      <g id="g_45" style="fill-opacity:1.0;fill:rgb(158, 118, 61)">
        <path d="M 169.587,-20.913 C 147.588,-64.908 159.229,-66.928 146.026,-110.813 C 130.821,-161.352 82.551,-207.093 5.303,-207.093 C -72.777,-207.093 -120.21499999999999,-161.352 -135.42,-110.813 C -148.623,-66.928 -136.982,-64.908 -158.981,-20.913 C -183.135,27.392 -193.335,159.087 5.303,159.087 C 203.941,159.087 193.74099999999999,27.392 169.587,-20.913 Z" style="fill-opacity:1.0;fill:rgb(158, 118, 61)"/>
      </g>
      <g id="g_46" style="fill-opacity:1.0;fill:rgb(188, 146, 89)">
        <path d="M 156.11,-21.166 C 135.91600000000003,-61.551 146.602,-63.407 134.482,-103.692 C 120.525,-150.08499999999998 76.214,-192.073 5.303,-192.073 C -66.372,-192.073 -109.918,-150.08499999999998 -123.876,-103.692 C -135.996,-63.407 -125.30999999999999,-61.551 -145.504,-21.166 C -167.677,23.176 -177.04,144.067 5.303,144.067 C 187.646,144.067 178.28300000000002,23.176 156.11,-21.166 Z" style="fill-opacity:1.0;fill:rgb(188, 146, 89)"/>
      </g>
      <g id="g_47" style="fill-opacity:1.0;fill:rgb(199, 159, 107)">
        <path d="M 96.859,-148.606 C 96.859,-125.07 56.144,-105.99 5.921,-105.99 C -44.302,-105.99 -85.016,-125.07 -85.016,-148.606 C -85.016,-172.142 -44.302,-191.222 5.921,-191.222 C 56.144,-191.222 96.859,-172.142 96.859,-148.606 Z" style="fill-opacity:1.0;fill:rgb(199, 159, 107)"/>
      </g>
      <g id="g_48" style="">
        <g id="g_49" style="stroke:rgb(255, 255, 255);stroke-opacity:1.0;stroke-width:6.0;stroke-linecap:round;stroke-linejoin:round">
          <path d="M 62.717,-181.024 C 64.228,-180.53 65.795,-179.99599999999998 67.407,-179.42 " style="stroke:rgb(255, 255, 255);stroke-opacity:1.0;stroke-width:6.0;stroke-linecap:round;stroke-linejoin:round"/>
        </g>
        <g id="g_50" style="stroke:rgb(255, 255, 255);stroke-opacity:1.0;stroke-width:6.0;stroke-linecap:round;stroke-linejoin:round">
          <path d="M 41.579,-186.44 C 41.579,-186.44 46.445,-185.681 54.078,-183.608 " style="stroke:rgb(255, 255, 255);stroke-opacity:1.0;stroke-width:6.0;stroke-linecap:round;stroke-linejoin:round"/>
        </g>
      </g>
      <g id="g_51" style="stroke:rgb(94, 66, 31);stroke-opacity:1.0;stroke-width:8.0;stroke-miterlimit:10.0;stroke-linecap:butt;stroke-linejoin:miter">
        <path d="M 169.587,-20.913 C 147.588,-64.908 159.229,-66.928 146.026,-110.813 C 130.821,-161.352 82.551,-207.093 5.303,-207.093 C -72.777,-207.093 -120.21499999999999,-161.352 -135.42,-110.813 C -148.623,-66.928 -136.982,-64.908 -158.981,-20.913 C -183.135,27.392 -193.335,159.087 5.303,159.087 C 203.941,159.087 193.74099999999999,27.392 169.587,-20.913 Z" style="stroke:rgb(94, 66, 31);stroke-opacity:1.0;stroke-width:8.0;stroke-miterlimit:10.0;stroke-linecap:butt;stroke-linejoin:miter"/>
      </g>
      <g id="g_52" style="fill-opacity:1.0;fill:rgb(240, 216, 179)">
        <path d="M 88.579,-75.949 C 49.77799999999999,-85.355 22.136,-59.29 10.891,-45.909 C 7.968999999999999,-42.432 2.637,-42.432 -0.285,-45.909 C -11.53,-59.29 -39.173,-85.355 -77.973,-75.949 C -129.418,-63.477 -137.213,-18.787 -132.017,4.597 C -127.163,26.438000000000002 -109.163,47.373 -80.556,57.662 C -77.104,58.903999999999996 -75.09,62.488 -75.875,66.071 C -79.345,81.916 -86.275,123.42000000000002 -70.075,146.877 C -67.263,150.949 -62.845,153.642 -57.943,154.316 C -50.561,155.331 -37.786,158.09300000000002 -27.048,165.544 C -10.072999999999997,177.323 5.303,176.601 5.303,176.601 C 5.303,176.601 20.679000000000002,177.323 37.654,165.544 C 48.391000000000005,158.09300000000002 61.166000000000004,155.331 68.548,154.316 C 73.45,153.642 77.86800000000001,150.949 80.68,146.877 C 96.88000000000001,123.42000000000002 89.951,81.916 86.481,66.071 C 85.696,62.488 87.71000000000001,58.903999999999996 91.162,57.662 C 119.769,47.373 137.76999999999998,26.438000000000002 142.623,4.597 C 147.82,-18.787 140.024,-63.477 88.579,-75.949 Z" style="fill-opacity:1.0;fill:rgb(240, 216, 179)"/>
      </g>
      <g id="g_53" style="fill-opacity:1.0;fill:rgb(219, 191, 151)">
        <path d="M 134.093,-35.971 C 136.63899999999998,-29.917999999999996 134.20499999999998,-22.882 128.458,-19.704 C 88.758,2.25 37.067,-7.056 14.574,-11.647 C 7.8999999999999995,-13.009 1.0099999999999998,-12.951 -5.621,-11.396 C -61.748000000000005,1.7669999999999995 -99.51299999999999,-12.49 -116.496,-21.256 C -122.74,-24.479 -125.336,-32.126 -122.192,-38.41 C -116.70599999999999,-49.375 -105.011,-65.379 -76.315,-72.759 C -37.650999999999996,-82.703 -11.532,-59.293 -0.282,-45.913 C 2.638,-42.433 7.9670000000000005,-42.433 10.887,-45.913 C 22.137,-59.293 48.991,-81.64500000000001 87.791,-72.245 C 114.577,-65.74600000000001 127.398,-51.891999999999996 134.093,-35.971 Z" style="fill-opacity:1.0;fill:rgb(219, 191, 151)"/>
      </g>
      <g id="g_54" style="stroke:rgb(240, 216, 179);stroke-opacity:1.0;stroke-width:8.0;stroke-miterlimit:10.0;stroke-linecap:butt;stroke-linejoin:miter">
        <path d="M 88.579,-75.949 C 49.77799999999999,-85.355 22.136,-59.29 10.891,-45.909 C 7.968999999999999,-42.432 2.637,-42.432 -0.285,-45.909 C -11.53,-59.29 -39.173,-85.355 -77.973,-75.949 C -129.418,-63.477 -137.213,-18.787 -132.017,4.597 C -127.163,26.438000000000002 -109.163,47.373 -80.556,57.662 C -77.104,58.903999999999996 -75.09,62.488 -75.875,66.071 C -79.345,81.916 -86.275,123.42000000000002 -70.075,146.877 C -67.263,150.949 -62.845,153.642 -57.943,154.316 C -50.561,155.331 -37.786,158.09300000000002 -27.048,165.544 C -10.072999999999997,177.323 5.303,176.601 5.303,176.601 C 5.303,176.601 20.679000000000002,177.323 37.654,165.544 C 48.391000000000005,158.09300000000002 61.166000000000004,154.331 68.548,153.316 C 73.45,152.642 77.86800000000001,150.949 80.68,146.877 C 96.88000000000001,123.42000000000002 89.951,81.916 86.481,66.071 C 85.696,62.488 87.71000000000001,58.903999999999996 91.162,57.662 C 119.769,47.373 137.76999999999998,26.438000000000002 142.623,4.597 C 147.82,-18.787 140.024,-63.477 88.579,-75.949 Z" style="stroke:rgb(240, 216, 179);stroke-opacity:1.0;stroke-width:8.0;stroke-miterlimit:10.0;stroke-linecap:butt;stroke-linejoin:miter"/>
      </g>
      <g id="g_55" opacity="0.11" style="fill-opacity:1.0;fill:rgb(158, 118, 61)">
        <path d="M 91.856,131.627 C 90.18499999999999,138.227 86.60900000000001,145.514 83.799,149.584 C 80.989,153.654 73.44900000000001,153.64700000000002 68.549,154.317 C 61.169000000000004,155.327 48.389,158.097 37.649,165.547 C 20.679000000000002,177.327 5.299,176.597 5.299,176.597 C 5.299,176.597 -10.070999999999998,177.327 -27.051,165.547 C -37.781,158.097 -50.561,155.327 -57.941,154.317 C -62.841,153.64700000000002 -69.05,153.696 -72.457,150.111 C -76.29799999999999,146.07 -79.631,136.76999999999998 -81.201,131.67 C -68.89099999999999,135.07999999999998 -31.521,145.767 -17.101,154.037 C 0.8290000000000006,164.327 20.549,159.697 28.949,154.037 C 36.839,148.717 67.006,135.637 91.856,131.627 Z" style="fill-opacity:1.0;fill:rgb(158, 118, 61)"/>
      </g>
      <g id="g_56" style="stroke:rgb(178, 149, 114);stroke-opacity:1.0;stroke-width:8.0;stroke-linecap:round;stroke-linejoin:round">
        <path d="M -70.986,150.908 C -53.775000000000006,156.034 -38.839,158.784 -27.847,165.744 C -9.237000000000002,177.526 5.303,176.601 5.303,176.601 C 5.303,176.601 20.678000000000004,177.323 37.654,165.544 C 47.836000000000006,158.479 62.656000000000006,155.688 81.313,150.908 " style="stroke:rgb(178, 149, 114);stroke-opacity:1.0;stroke-width:8.0;stroke-linecap:round;stroke-linejoin:round"/>
      </g>
      <g inkscape:groupmode="layer" id="g_57" opacity="1" inkscape:label="NullLayer">
        <g inkscape:groupmode="layer" id="g_58" inkscape:label="ShapeLayer" style="">
          <g id="g_59" style="">
            <g id="g_60" style="fill-opacity:1.0;fill:rgb(219, 191, 151)">
              <path d="M 22.949,90.878 C 22.409000000000002,89.249 21.493000000000002,87.325 18.446,83.779 C 17.220000000000002,82.353 13.969999999999999,77.503 7.715,77.503 C 1.46,77.503 -3.2920000000000003,82.702 -5.317,85.475 C -7.71,88.752 -7.897999999999999,93.33900000000001 -8.088,94.686 C -8.331999999999999,96.417 -8.594000000000001,96.547 -7.219,100.342 C -5.2700000000000005,105.721 1.521,111.172 7.8,111.172 C 14.079,111.172 21.272,105.227 23.221,99.848 C 24.596,96.053 23.591,92.816 22.949,90.878 Z" style="fill-opacity:1.0;fill:rgb(219, 191, 151)"/>
            </g>
          </g>
          <g id="g_61" style="fill-opacity:1.0;fill:rgb(255, 244, 233)">
            <path d="M 23.362,92.486 C 22.624,90.604 21.546,91.155 17.962,87.849 C 16.512,86.512 14.211,82.844 7.718,82.844 C 1.2249999999999996,82.844 -1.2620000000000002,86.11 -2.692,87.507 C -6.227,90.961 -7.021,92.46600000000001 -7.643,94.319 C -8.831,97.857 -8.682,100.084 -7.255,103.879 C -5.231999999999999,109.25800000000001 1.2749999999999995,118.052 7.792,118.052 C 14.309000000000001,118.052 21.069,108.958 23.092,103.579 C 24.519,99.78399999999999 24.788999999999998,96.126 23.362,92.486 Z" style="fill-opacity:1.0;fill:rgb(255, 244, 233)"/>
          </g>
          <g id="g_62" style="fill-opacity:1.0;fill:rgb(63, 10, 36)">
            <path d="M 23.362,92.486 C 22.822999999999997,90.03200000000001 21.444000000000003,88.543 17.981,85.382 C 16.580000000000002,84.10300000000001 13.972999999999999,80.642 7.718,80.642 C 1.463,80.642 -1.7820000000000003,84.022 -3.164,85.358 C -6.58,88.662 -7.132,92.367 -7.643,94.319 C -8.334999999999999,96.965 -7.69,98.749 -6.315,102.544 C -4.3660000000000005,107.923 1.521,113.374 7.8,113.374 C 14.079,113.374 20.369,107.429 22.318,102.05 C 23.693,98.255 24.093,95.812 23.362,92.486 Z" style="fill-opacity:1.0;fill:rgb(63, 10, 36)"/>
          </g>
          <g id="g_63" style="fill-opacity:1.0;fill:rgb(178, 70, 96)">
            <path d="M 17.833,108.59 C 15.123999999999999,111.641 11.193,113.377 7.798,113.377 C 4.308,113.377 1.1460000000000001,112.23700000000001 -1.599,109.066 C -1.729,109.066 -0.613,109.061 0.157,109.061 C 3.678,109.061 7.764,109.456 7.764,109.456 C 7.764,109.456 13.27,108.086 16.695,109.214 C 17.431,109.457 18.205,108.59 17.833,108.59 Z" style="fill-opacity:1.0;fill:rgb(178, 70, 96)"/>
          </g>
          <g id="g_64" style="fill-opacity:1.0;fill:rgb(4, 0, 1)">
            <path d="M 23.396,98.676 C 23.604,97.272 23.122999999999998,96.477 22.79,94.926 C 22.271,92.509 20.737000000000002,90.363 17.364,87.313 C 16.002000000000002,86.08200000000001 13.789,82.815 7.718,82.815 C 1.6429999999999998,82.815 -0.823,85.518 -2.169,86.808 C -5.494,89.995 -6.423,93.815 -7.041,95.879 C -7.307,96.76700000000001 -7.6,97.76 -7.395,99.164 C -8.048,96.725 -7.982,96.32 -7.644,94.323 C -7.2860000000000005,92.207 -6.5809999999999995,88.66300000000001 -3.163,85.358 C -1.781,84.021 1.4640000000000004,80.641 7.718,80.641 C 13.972,80.641 16.580000000000002,84.104 17.981,85.383 C 21.446,88.544 22.821,90.039 23.361,92.486 C 23.872,94.803 24.049,96.237 23.396,98.676 Z" style="fill-opacity:1.0;fill:rgb(4, 0, 1)"/>
          </g>
        </g>
        <g inkscape:groupmode="layer" id="g_65" inkscape:label="ShapeLayer" style="">
          <g id="g_66" style="fill-opacity:1.0;fill:rgb(219, 191, 151)">
            <path d="M 23.934,29.849 C 20.306,29.755 14.897,31.463 11.849,32.814 C 8.696,34.212 3.032,34.212 -0.121,32.814 C -3.169,31.463 -8.578,29.755 -12.206,29.849 C -23.493000000000002,30.141000000000002 -28.73,36.575 -28.625,47.042 C -28.546,54.944 -23.965,70.656 5.864,70.656 C 35.396,70.656 39.908,55.202 40.353,47.042 C 40.922000000000004,36.59 35.221000000000004,30.141000000000002 23.934,29.849 Z" style="fill-opacity:1.0;fill:rgb(219, 191, 151)"/>
          </g>
          <g id="g_67" style="">
            <g id="g_68" style="fill-opacity:1.0;fill:rgb(240, 216, 180)">
              <path d="M -0.269,46.986 C 2.2399999999999998,51.9 0.22299999999999986,57.953 -3.725,59.968 C -7.673,61.983000000000004 -12.515,59.79 -15.327,55.043 C -19.552,47.909 -17.766,42.214 -13.818,40.199 C -9.87,38.184 -4.199,39.287 -0.269,46.986 Z" style="fill-opacity:1.0;fill:rgb(240, 216, 180)"/>
            </g>
            <g id="g_69" style="fill-opacity:1.0;fill:rgb(103, 68, 48)">
              <path d="M -1.484,44.758 C 1.025,49.672000000000004 -0.14100000000000046,55.29 -4.089,57.305 C -8.037,59.32 -13.27,56.97 -15.779,52.056 C -18.288,47.141999999999996 -17.122,41.524 -13.174,39.509 C -9.225999999999999,37.494 -3.993,39.844 -1.484,44.758 Z" style="fill-opacity:1.0;fill:rgb(103, 68, 48)"/>
            </g>
            <g id="g_70" style="fill-opacity:1.0;fill:rgb(54, 22, 9)">
              <path d="M -1.485,44.758 C -1.016,45.677 -0.67,46.628 -0.457,47.57 C -2.976,42.72 -8.538,41.297 -12.282,43.208 C -16.026,45.119 -16.556,49.674 -14.08,54.567 C -14.723,53.833 -15.302,52.992 -15.78,52.056 C -18.291,47.138 -17.125,41.522999999999996 -13.177,39.507 C -9.229,37.491 -3.9960000000000004,39.84 -1.485,44.758 Z" style="fill-opacity:1.0;fill:rgb(54, 22, 9)"/>
            </g>
          </g>
          <g id="g_71" style="">
            <g id="g_72" style="fill-opacity:1.0;fill:rgb(240, 216, 180)">
              <path d="M 12.111,46.986 C 9.602,51.9 11.619,57.953 15.567,59.968 C 19.515,61.983000000000004 24.357,59.79 27.169,55.043 C 31.394,47.909 29.609,42.214 25.661,40.199 C 21.713,38.184 16.041,39.287 12.111,46.986 Z" style="fill-opacity:1.0;fill:rgb(240, 216, 180)"/>
            </g>
            <g id="g_73" style="fill-opacity:1.0;fill:rgb(103, 68, 48)">
              <path d="M 13.326,44.758 C 10.817,49.672000000000004 11.982999999999999,55.29 15.931,57.305 C 19.878999999999998,59.32 25.112,56.97 27.621,52.056 C 30.13,47.141999999999996 28.964,41.524 25.016,39.509 C 21.067999999999998,37.494 15.835,39.844 13.326,44.758 Z" style="fill-opacity:1.0;fill:rgb(103, 68, 48)"/>
            </g>
            <g id="g_74" style="fill-opacity:1.0;fill:rgb(54, 22, 9)">
              <path d="M 13.327,44.758 C 12.858,45.677 12.513,46.628 12.3,47.57 C 14.819,42.72 20.381,41.297 24.125,43.208 C 27.869,45.119 28.398,49.674 25.922,54.567 C 26.565,53.833 27.145,52.992 27.623,52.056 C 30.134,47.138 28.967,41.522999999999996 25.019,39.507 C 21.070999999999998,37.491 15.838000000000001,39.84 13.327,44.758 Z" style="fill-opacity:1.0;fill:rgb(54, 22, 9)"/>
            </g>
          </g>
        </g>
        <g inkscape:groupmode="layer" id="g_75" transform="translate(15, 0.0) scale(-1.0, 1.0)" inkscape:label="ShapeLayer" style="">
          <g id="g_76" style="fill-opacity:1.0;fill:rgb(219, 191, 151)">
            <path d="M -38.523,9.822 C -38.523,29.337999999999997 -50.39,45.158 -63.783,45.158 C -77.176,45.158 -89.044,29.337999999999997 -89.044,9.822 C -89.044,-9.693999999999999 -77.176,-25.514 -63.783,-25.514 C -50.39,-25.514 -38.523,-9.693999999999999 -38.523,9.822 Z" style="fill-opacity:1.0;fill:rgb(219, 191, 151)"/>
          </g>
          <g id="g_77" style="">
            <g id="g_78" style="fill-opacity:1.0;fill:rgb(17, 17, 17)">
              <path d="M -39.533,4.77 C -39.533,24.285999999999998 -50.39,40.106 -63.783,40.106 C -77.176,40.106 -88.033,24.285999999999998 -88.033,4.77 C -88.033,-14.745999999999999 -77.176,-30.566 -63.783,-30.566 C -50.39,-30.566 -39.533,-14.745999999999999 -39.533,4.77 Z" style="fill-opacity:1.0;fill:rgb(17, 17, 17)"/>
            </g>
            <g id="g_79" style="fill-opacity:1.0;fill:rgb(245, 245, 245)">
              <path d="M -50.461,-12.676 C -50.461,-6.9750000000000005 -56.425000000000004,-11.535 -63.783,-11.535 C -71.141,-11.535 -77.106,-6.848 -77.106,-12.676 C -77.106,-16.306 -71.141,-23.45 -63.783,-23.45 C -56.425000000000004,-23.45 -50.461,-16.305 -50.461,-12.676 Z" style="fill-opacity:1.0;fill:rgb(245, 245, 245)"/>
            </g>
            <g id="g_80" style="fill-opacity:1.0;fill:rgb(72, 73, 73)">
              <path d="M -46.701,12.524 C -46.701,19.602999999999998 -53.797,33.272 -63.783,33.272 C -73.769,33.272 -80.865,19.602999999999998 -80.865,12.524 C -80.865,1.1669999999999998 -73.769,11.875 -63.783,11.875 C -53.797,11.875 -46.701,0.6529999999999987 -46.701,12.524 Z" style="fill-opacity:1.0;fill:rgb(72, 73, 73)"/>
            </g>
          </g>
        </g>
        <g inkscape:groupmode="layer" id="g_81" inkscape:label="ShapeLayer" style="">
          <g id="g_82" style="fill-opacity:1.0;fill:rgb(219, 191, 151)">
            <path d="M -38.523,9.822 C -38.523,29.337999999999997 -50.39,45.158 -63.783,45.158 C -77.176,45.158 -89.044,29.337999999999997 -89.044,9.822 C -89.044,-9.693999999999999 -77.176,-25.514 -63.783,-25.514 C -50.39,-25.514 -38.523,-9.693999999999999 -38.523,9.822 Z" style="fill-opacity:1.0;fill:rgb(219, 191, 151)"/>
          </g>
          <g id="g_83" style="">
            <g id="g_84" style="fill-opacity:1.0;fill:rgb(17, 17, 17)">
              <path d="M -39.533,4.77 C -39.533,24.285999999999998 -50.39,40.106 -63.783,40.106 C -77.176,40.106 -88.033,24.285999999999998 -88.033,4.77 C -88.033,-14.745999999999999 -77.176,-30.566 -63.783,-30.566 C -50.39,-30.566 -39.533,-14.745999999999999 -39.533,4.77 Z" style="fill-opacity:1.0;fill:rgb(17, 17, 17)"/>
            </g>
            <g id="g_85" style="fill-opacity:1.0;fill:rgb(245, 245, 245)">
              <path d="M -50.461,-12.676 C -50.461,-6.9750000000000005 -56.425000000000004,-11.535 -63.783,-11.535 C -71.141,-11.535 -77.106,-6.848 -77.106,-12.676 C -77.106,-16.306 -71.141,-23.45 -63.783,-23.45 C -56.425000000000004,-23.45 -50.461,-16.305 -50.461,-12.676 Z" style="fill-opacity:1.0;fill:rgb(245, 245, 245)"/>
            </g>
            <g id="g_86" style="fill-opacity:1.0;fill:rgb(72, 73, 73)">
              <path d="M -46.701,12.524 C -46.701,19.602999999999998 -53.797,33.272 -63.783,33.272 C -73.769,33.272 -80.865,19.602999999999998 -80.865,12.524 C -80.865,1.1669999999999998 -73.769,11.875 -63.783,11.875 C -53.797,11.875 -46.701,0.6529999999999987 -46.701,12.524 Z" style="fill-opacity:1.0;fill:rgb(72, 73, 73)"/>
            </g>
          </g>
        </g>
      </g>
    </g>
  </g>

   <g inkscape:groupmode="layer" id="g_3" opacity="0.2" transform="translate(254.635, 247.961)" inkscape:label="ShapeLayer" style="">
      <g id="g_4" style="fill-opacity:1.0;fill:rgb(158, 118, 61)">
         <path d="M -1.225,69.692 C 2.139,81.443 10.465999999999998,96.422 17.656,113.086 C 30.365,142.54 25.821000000000005,128.455 49.904,144.181 C 57.241,148.848 66.054,134.99599999999998 68.931,145.79 C 71.01599999999999,153.612 81.807,141.69899999999998 51.49,160.266 C 84.436,153.527 132.952,132.912 147.472,120.625 C 142.369,99.295 118.193,131.591 117.368,125.178 C 115.91199999999999,113.866 118.624,103.995 120.966,98.001 C 122.199,95.997 123.16699999999999,93.96199999999999 123.817,91.889 C 123.817,91.889 140.554,141.777 134.546,113.38 C 128.684,85.67099999999999 115.471,-20.235999999999997 95.537,-17.397 C 95.537,-17.397 76.864,-27.461 79.733,56.172 C 80.24000000000001,70.958 68.468,55.296 68.297,62.602 C 68.297,62.602 33.357,18.035 21.29,19.282 C 9.222999999999999,20.529 12.688,21.156 15.285,33.125 C 15.285,33.125 -14.026,24.972999999999992 -1.225,69.692 Z" style="fill-opacity:1.0;fill:rgb(158, 118, 61)"/>
      </g>
   </g>
   <g inkscape:groupmode="layer" id="g_5" transform="translate(228.49900000000002, 339.427) scale(0.95, 0.95)" inkscape:label="ShapeLayer" style="">
      <g id="g_6" style="fill-opacity:1.0;fill:rgb(233, 201, 165)">
         <path d="M 165.237,31.599 C 165.237,31.599 176.32000000000002,13.234 172.377,-15.516 C 168.52800000000002,-43.577 168.021,-63.551 149.171,-70.646 C 149.171,-70.646 157.005,-122.19800000000001 124.471,-122.896 C 100.0,-123.421 120.789,-62.368 113.289,-50.822 C 113.289,-50.822 61.986,-102.89 37.833,-104.875 C 25.743,-105.869 20.386,-95.925 25.044,-84.597 C 25.044,-84.597 12.526,-85.743 10.887,-71.36 C 9.335,-57.742999999999995 37.888000000000005,-43.224000000000004 41.676,-22.528 C 46.236000000000004,2.3840000000000003 48.833000000000006,33.379999999999995 71.867,54.464 C 94.90100000000001,75.548 155.017,57.235 165.237,31.599 Z" style="fill-opacity:1.0;fill:rgb(233, 201, 165)"/>
      </g>
      <g id="g_7" style="fill-opacity:1.0;fill:rgb(252, 227, 199)">
         <path d="M 16.973,-54.518 C 17.358,-56.297 17.367,-58.074 16.879,-59.652 C 13.803,-69.59100000000001 20.293000000000003,-78.268 37.966,-60.871 C 56.784000000000006,-42.347 64.30000000000001,-34.201 69.305,-32.534 C 75.893,-30.34 73.995,-38.863 73.995,-38.863 C 68.9,-49.742 51.119,-62.097 41.387,-71.59 C 31.657,-81.08 27.954,-87.105 27.954,-87.105 C 28.524,-105.819 44.737,-97.79299999999999 60.423,-86.062 C 74.59,-75.467 95.743,-56.269000000000005 103.976,-50.609 C 113.092,-44.342 112.079,-49.06999999999999 113.869,-50.602 C 115.661,-52.135 116.047,-53.876 116.047,-53.876 C 113.41199999999999,-49.787 112.759,-49.264 112.759,-49.264 C 123.158,-66.57900000000001 101.018,-134.21099999999998 125.003,-110.404 C 149.269,-86.31899999999999 133.863,-35.701 140.114,-32.473 C 145.608,-29.636 147.793,-35.753 147.793,-35.753 C 147.793,-35.753 150.285,-51.214 150.285,-51.214 C 153.92499999999998,-67.094 168.98,-38.908 169.48,-38.408 C 162.73,-50.248000000000005 159.074,-66.897 149.466,-70.509 C 149.466,-70.509 157.516,-122.384 124.993,-123.075 C 100.523,-123.595 121.05300000000001,-63.684 113.522,-50.602 C 113.522,-50.602 62.403000000000006,-103.30499999999999 38.14,-104.979 C 26.043,-105.814 20.704,-96.006 25.361,-84.673 C 25.361,-84.673 12.844,-85.824 11.199,-71.438 C 10.683,-66.923 13.139,-61.056 16.973,-54.518 Z" style="fill-opacity:1.0;fill:rgb(252, 227, 199)"/>
      </g>
      <g id="g_8" style="fill-opacity:1.0;fill:rgb(220, 176, 127)">
         <path d="M 35.225,-26.939 C 38.559000000000005,-21.926000000000002 40.788,-27.389 41.677,-22.529 C 46.234,2.3880000000000017 48.831,33.377 71.869,54.465 C 94.89699999999999,75.543 155.017,57.234 165.232,31.599 C 165.232,31.599 176.317,13.23 172.376,-15.517 C 171.75900000000001,-20.023 170.85999999999999,-24.641 169.688,-29.218 C 169.688,-29.218 168.658,29.911 125.987,33.186 C 92.48599999999999,35.757 77.285,34.627 35.225,-26.939 Z" style="fill-opacity:1.0;fill:rgb(220, 176, 127)"/>
      </g>
      <g id="g_9" style="stroke:rgb(148, 96, 55);stroke-opacity:1.0;stroke-width:8.0;stroke-linecap:round;stroke-linejoin:round">
         <path d="M 165.237,31.599 C 165.237,31.599 176.32000000000002,13.234 172.377,-15.516 C 168.52800000000002,-43.577 168.021,-63.551 149.171,-70.646 C 149.171,-70.646 147.829,-123.421 124.471,-122.896 C 100.001,-122.346 119.21000000000001,-63.684000000000005 113.289,-50.822 C 113.289,-50.822 63.153,-103.552 37.833,-104.875 C 25.718999999999998,-105.508 20.386,-95.925 25.044,-84.597 C 25.044,-84.597 12.526,-85.743 10.887,-71.36 C 9.335,-57.742999999999995 37.888000000000005,-43.224000000000004 41.676,-22.528 C 46.236000000000004,2.3840000000000003 48.833000000000006,33.379999999999995 71.867,54.464 C 94.90100000000001,75.548 155.017,57.235 165.237,31.599 Z" style="stroke:rgb(148, 96, 55);stroke-opacity:1.0;stroke-width:8.0;stroke-linecap:round;stroke-linejoin:round"/>
      </g>
      <g id="g_10" style="stroke:rgb(148, 96, 55);stroke-opacity:1.0;stroke-width:8.0;stroke-linecap:round;stroke-linejoin:round">
         <path d="M 113.289,-50.822 C 113.289,-50.822 114.10300000000001,-52.359 113.153,-50.098 " style="stroke:rgb(148, 96, 55);stroke-opacity:1.0;stroke-width:8.0;stroke-linecap:round;stroke-linejoin:round"/>
      </g>
      <g id="g_11" style="stroke:rgb(148, 96, 55);stroke-opacity:1.0;stroke-width:8.0;stroke-linecap:round;stroke-linejoin:round">
         <path d="M 149.171,-70.646 C 149.171,-70.646 151.84199999999998,-49.21 147.742,-34.569 " style="stroke:rgb(148, 96, 55);stroke-opacity:1.0;stroke-width:8.0;stroke-linecap:round;stroke-linejoin:round"/>
      </g>
      <g id="g_12" style="stroke:rgb(148, 96, 55);stroke-opacity:1.0;stroke-width:8.0;stroke-linecap:round;stroke-linejoin:round">
         <path d="M 25.044,-84.597 C 25.044,-84.597 55.82000000000001,-69.828 74.379,-38.14 " style="stroke:rgb(148, 96, 55);stroke-opacity:1.0;stroke-width:8.0;stroke-linecap:round;stroke-linejoin:round"/>
      </g>
      <g id="g_13" style="">
         <g id="g_14" style="fill-opacity:1.0;fill:rgb(158, 118, 61)">
            <path d="M 172.759,109.589 C 172.759,109.589 157.75099999999998,83.001 156.688,64.313 C 155.625,45.625 159.813,34.75 159.813,34.75 C 159.813,34.75 150.438,44.563 150.438,44.563 C 150.438,44.563 146.563,32.125 146.563,32.125 C 146.0,30.312 143.62599999999998,29.687 142.313,31.125 C 142.313,31.125 134.25,39.938 134.25,39.938 C 134.25,39.938 123.25,26 123.25,26 C 122.0,24.437 119.438,24.875 118.875,26.813 C 118.875,26.813 113.625,44.063 113.625,44.063 C 113.625,44.063 96.188,37.125 96.188,37.125 C 94.563,36.5 92.75,37.688 92.75,39.438 C 92.75,39.438 92.75,59.125 92.75,59.125 C 92.75,59.125 73.25,51.125 73.25,51.125 C 73.25,51.125 95.125,66.437 98.625,84.625 C 102.125,102.813 103.513,110.589 103.513,110.589 C 103.513,110.589 116.443,118.312 134.308,118.276 C 165.44299999999998,118.213 172.759,109.589 172.759,109.589 Z" style="fill-opacity:1.0;fill:rgb(158, 118, 61)"/>
         </g>
         <g id="g_15" style="fill-opacity:1.0;fill:rgb(188, 146, 89)">
            <path d="M 119.563,116.589 C 119.563,116.589 132.436,120.146 148.94,117.714 C 168.449,114.839 172.759,109.589 172.759,109.589 C 172.759,109.589 170.132,105.395 159.875,83.125 C 159.875,83.125 159.454,86.599 159.454,86.599 C 156.704,71.974 139.806,56.197 128.056,69.51 C 119.80600000000001,78.885 122.759,88.158 122.641,99.378 C 122.548,108.172 119.563,116.589 119.563,116.589 Z" style="fill-opacity:1.0;fill:rgb(188, 146, 89)"/>
         </g>
         <g id="g_16" style="stroke:rgb(94, 66, 31);stroke-opacity:1.0;stroke-width:8.0;stroke-linecap:round;stroke-linejoin:round">
            <path d="M 171.852,107.589 C 171.852,107.589 157.75099999999998,83.001 156.688,64.313 C 156.063,52.938 159.438,43.313 162.188,37.5 " style="stroke:rgb(94, 66, 31);stroke-opacity:1.0;stroke-width:8.0;stroke-linecap:round;stroke-linejoin:round"/>
         </g>
         <g id="g_17" style="stroke:rgb(94, 66, 31);stroke-opacity:1.0;stroke-width:8.0;stroke-linecap:round;stroke-linejoin:round">
            <path d="M 73.75,56 C 73.75,56 95.687,67.937 98.625,84.625 C 101.813,102.875 103.513,107.589 103.513,107.589 " style="stroke:rgb(94, 66, 31);stroke-opacity:1.0;stroke-width:8.0;stroke-linecap:round;stroke-linejoin:round"/>
         </g>
      </g>
   </g>
  
  <!-- test -->
   <g inkscape:groupmode="layer" id="g_18" transform="translate(15, 200) scale(1 1)" inkscape:label="ShapeLayer">
      <g id="g_19" style="fill-opacity:1.0;fill:rgb(233, 201, 165)">
         <path d="M 165.237,31.599 C 165.237,31.599 176.32000000000002,13.234 172.377,-15.516 C 168.52800000000002,-43.577 153.631,-76.14099999999999 133.538,-74.755 C 133.538,-74.755 116.56299999999999,-111.131 98.895,-119.792 C 85.606,-126.306 77.416,-117.71300000000001 76.723,-110.438 C 76.723,-110.438 68.755,-121.924 56.63,-121.551 C 44.505,-121.178 39.655,-109.052 41.387,-96.927 C 41.387,-96.927 29.535,-101.113 24.412,-87.574 C 19.561999999999998,-74.756 37.888000000000005,-43.224000000000004 41.676,-22.528 C 46.236000000000004,2.3840000000000003 48.833000000000006,33.379999999999995 71.867,54.464 C 94.90100000000001,75.548 155.017,57.235 165.237,31.599 Z" style="fill-opacity:1.0;fill:rgb(233, 201, 165)"/>
      </g>
      <g id="g_20" style="fill-opacity:1.0;fill:rgb(252, 227, 199)">
         <path d="M 26.173,-69.753 C 26.982999999999997,-71.383 27.423,-73.103 27.343,-74.753 C 26.803,-85.143 35.226,-91.959 48.083,-70.753 C 61.772999999999996,-48.173 64.057,-36.43300000000001 68.653,-33.843 C 74.70200000000001,-30.434000000000005 74.463,-39.163 74.463,-39.163 C 71.53299999999999,-50.812999999999995 61.123999999999995,-68.703 54.034,-80.303 C 46.934,-91.893 44.824,-98.643 44.824,-98.643 C 49.974,-116.643 62.13999999999999,-110.43799999999999 74.463,-95.213 C 85.59299999999999,-81.46199999999999 94.193,-60.242999999999995 98.713,-51.333 C 103.23299999999999,-42.413 108.944,-47.382999999999996 109.264,-48.413 C 109.594,-49.443 108.614,-52.253 108.614,-52.253 C 104.354,-67.393 84.773,-102.243 84.773,-102.243 C 86.143,-113.56299999999999 95.593,-113.229 111.373,-92.133 C 129.683,-67.654 133.863,-35.701 140.114,-32.473 C 145.608,-29.636 147.793,-35.753 147.793,-35.753 C 147.793,-35.753 142.653,-52.793 142.653,-52.793 C 146.29299999999998,-68.673 159.244,-56.013 159.744,-55.513 C 152.994,-67.353 144.104,-75.463 133.864,-74.753 C 133.864,-74.753 116.884,-111.13300000000001 99.224,-119.793 C 85.934,-126.30300000000001 77.74300000000001,-117.71300000000001 77.043,-110.433 C 77.043,-110.433 69.084,-121.923 56.954,-121.553 C 44.834,-121.173 39.983000000000004,-109.053 41.713,-96.923 C 41.713,-96.923 29.863,-101.113 24.733,-87.573 C 23.123,-83.323 24.063,-77.033 26.173,-69.753 Z" style="fill-opacity:1.0;fill:rgb(252, 227, 199)"/>
      </g>
      <g id="g_21" style="fill-opacity:1.0;fill:rgb(220, 176, 127)">
         <path d="M 37.09,-38.535 C 39.091,-32.855999999999995 40.788,-27.389 41.677,-22.529 C 46.234,2.3880000000000017 48.831,33.377 71.869,54.465 C 94.89699999999999,75.543 155.017,57.234 165.232,31.599 C 165.232,31.599 176.317,13.23 172.376,-15.517 C 171.75900000000001,-20.023 170.85999999999999,-24.641 169.688,-29.218 C 169.688,-29.218 168.658,29.911 125.987,33.186 C 92.48599999999999,35.757 62.735,31.47800000000001 37.09,-38.535 Z" style="fill-opacity:1.0;fill:rgb(220, 176, 127)"/>
      </g>
      <g id="g_22" style="stroke:rgb(148, 96, 55);stroke-opacity:1.0;stroke-width:8.0;stroke-linecap:round;stroke-linejoin:round">
         <path d="M 165.237,31.599 C 165.237,31.599 176.32000000000002,13.234 172.377,-15.516 C 168.52800000000002,-43.577 153.631,-76.14099999999999 133.538,-74.755 C 133.538,-74.755 116.56299999999999,-111.131 98.895,-119.792 C 85.606,-126.306 77.416,-117.71300000000001 76.723,-110.438 C 76.723,-110.438 68.755,-121.924 56.63,-121.551 C 44.505,-121.178 39.655,-109.052 41.387,-96.927 C 41.387,-96.927 29.535,-101.113 24.412,-87.574 C 19.561999999999998,-74.756 37.888000000000005,-43.224000000000004 41.676,-22.528 C 46.236000000000004,2.3840000000000003 48.833000000000006,33.379999999999995 71.867,54.464 C 94.90100000000001,75.548 155.017,57.235 165.237,31.599 Z" style="stroke:rgb(148, 96, 55);stroke-opacity:1.0;stroke-width:8.0;stroke-linecap:round;stroke-linejoin:round"/>
      </g>
      <g id="g_23" style="stroke:rgb(148, 96, 55);stroke-opacity:1.0;stroke-width:8.0;stroke-linecap:round;stroke-linejoin:round">
         <path d="M 76.723,-110.438 C 76.723,-110.438 99.934,-80.299 108.941,-50.159 " style="stroke:rgb(148, 96, 55);stroke-opacity:1.0;stroke-width:8.0;stroke-linecap:round;stroke-linejoin:round"/>
      </g>
      <g id="g_24" style="stroke:rgb(148, 96, 55);stroke-opacity:1.0;stroke-width:8.0;stroke-linecap:round;stroke-linejoin:round">
         <path d="M 133.538,-74.755 C 133.538,-74.755 143.93099999999998,-51.891000000000005 147.742,-34.569 " style="stroke:rgb(148, 96, 55);stroke-opacity:1.0;stroke-width:8.0;stroke-linecap:round;stroke-linejoin:round"/>
      </g>
      <g id="g_25" style="stroke:rgb(148, 96, 55);stroke-opacity:1.0;stroke-width:8.0;stroke-linecap:round;stroke-linejoin:round">
         <path d="M 41.387,-96.927 C 41.387,-96.927 62.519,-73.023 74.702,-38.38 " style="stroke:rgb(148, 96, 55);stroke-opacity:1.0;stroke-width:8.0;stroke-linecap:round;stroke-linejoin:round"/>
      </g>
      <g id="g_26" style="">
         <g id="g_27" style="fill-opacity:1.0;fill:rgb(158, 118, 61)">
            <path d="M 190.375,204.063 C 190.375,204.063 157.75099999999998,83.001 156.688,64.313 C 155.625,45.625 159.813,34.75 159.813,34.75 C 159.813,34.75 150.438,44.563 150.438,44.563 C 150.438,44.563 146.563,32.125 146.563,32.125 C 146.0,30.312 143.62599999999998,29.687 142.313,31.125 C 142.313,31.125 134.25,39.938 134.25,39.938 C 134.25,39.938 123.25,26 123.25,26 C 122.0,24.437 119.438,24.875 118.875,26.813 C 118.875,26.813 113.625,44.063 113.625,44.063 C 113.625,44.063 96.188,37.125 96.188,37.125 C 94.563,36.5 92.75,37.688 92.75,39.438 C 92.75,39.438 92.75,59.125 92.75,59.125 C 92.75,59.125 73.25,51.125 73.25,51.125 C 73.25,51.125 95.125,66.437 98.625,84.625 C 102.125,102.813 114.063,205.063 114.063,205.063 C 114.063,205.063 128.312,212.813 148,212.75 C 182.313,212.687 190.375,204.063 190.375,204.063 Z" style="fill-opacity:1.0;fill:rgb(158, 118, 61)"/>
         </g>
         <g id="g_28" style="fill-opacity:1.0;fill:rgb(188, 146, 89)">
            <path d="M 131.75,211.063 C 131.75,211.063 145.937,214.62599999999998 164.125,212.188 C 185.625,209.313 190.375,204.063 190.375,204.063 C 190.375,204.063 168.188,122.313 159.875,83.125 C 159.875,83.125 157.875,87.125 157.875,87.125 C 155.125,72.5 137.438,57.25 125.688,70.563 C 117.438,79.938 120.625,104.37499999999999 124.75,138.063 C 128.75,170.37599999999998 131.75,211.063 131.75,211.063 Z" style="fill-opacity:1.0;fill:rgb(188, 146, 89)"/>
         </g>
         <g id="g_29" style="stroke:rgb(94, 66, 31);stroke-opacity:1.0;stroke-width:8.0;stroke-linecap:round;stroke-linejoin:round">
            <path d="M 189.375,202.063 C 189.375,202.063 157.75099999999998,83.001 156.688,64.313 C 156.063,52.938 159.438,43.313 162.188,37.5 " style="stroke:rgb(94, 66, 31);stroke-opacity:1.0;stroke-width:8.0;stroke-linecap:round;stroke-linejoin:round"/>
         </g>
         <g id="g_30" style="stroke:rgb(94, 66, 31);stroke-opacity:1.0;stroke-width:8.0;stroke-linecap:round;stroke-linejoin:round">
            <path d="M 73.75,56 C 73.75,56 95.687,67.937 98.625,84.625 C 101.813,102.875 114.063,202.063 114.063,202.063 " style="stroke:rgb(94, 66, 31);stroke-opacity:1.0;stroke-width:8.0;stroke-linecap:round;stroke-linejoin:round"/>
         </g>
      </g>
   </g>
   </svg>
