<?xml version="1.0" encoding="UTF-8" standalone="no"?>
<svg
   xmlns:dc="http://purl.org/dc/elements/1.1/"
   xmlns:cc="http://creativecommons.org/ns#"
   xmlns:rdf="http://www.w3.org/1999/02/22-rdf-syntax-ns#"
   xmlns:svg="http://www.w3.org/2000/svg"
   xmlns="http://www.w3.org/2000/svg"
   xmlns:sodipodi="http://sodipodi.sourceforge.net/DTD/sodipodi-0.dtd"
   xmlns:inkscape="http://www.inkscape.org/namespaces/inkscape"
   inkscape:version="1.0beta1 (32d4812, 2019-09-19)"
   style="fill: none; stroke: none"
   inkscape:export-ydpi="96"
   inkscape:export-xdpi="96"
   sodipodi:docname="TwoFactorSetupMonkeyIdle.svg"
   id="password_open_idle"
   version="1.1"
   viewBox="0 0 512 512"
   height="512"
   width="512">
  <metadata
     id="metadata16652">
    <rdf:RDF>
      <cc:Work
         rdf:about="">
        <dc:format>image/svg+xml</dc:format>
        <dc:type
           rdf:resource="http://purl.org/dc/dcmitype/StillImage" />
      </cc:Work>
    </rdf:RDF>
  </metadata>
  <defs
     id="defs16509" />
  <sodipodi:namedview
     inkscape:current-layer="g_45"
     inkscape:window-maximized="0"
     inkscape:window-y="23"
     inkscape:window-x="0"
     inkscape:window-height="710"
     inkscape:window-width="1280"
     inkscape:cy="256"
     inkscape:cx="256"
     inkscape:zoom="0.98046875"
     showgrid="false"
     inkscape:document-rotation="0"
     id="namedview16511"
     pagecolor="#ffffff"
     bordercolor="#666666"
     borderlayer="true"
     inkscape:pagecheckerboard="true" />
  <g
     inkscape:label="NullLayer"
     transform="translate(256, 256) scale(0.95, 0.95)"
     opacity="1"
     id="g_1"
     inkscape:groupmode="layer">
    <g
       style=""
       inkscape:label="ShapeLayer"
       id="g_2"
       inkscape:groupmode="layer">
      <g
         style=""
         inkscape:label="ShapeLayer"
         id="g_3"
         inkscape:groupmode="layer">
        <g
           style="fill-opacity:1.0;fill:rgb(158, 118, 61)"
           id="g_4">
          <path
             id="path16513"
             style="fill-opacity:1.0;fill:rgb(158, 118, 61)"
             d="M 125.73,-143.021 C 145.495,-144.326 174.75,-145.446 196.922,-118.078 C 221.394,-87.87 221.865,-28.439 174.577,10.795 C 125.049,51.887 70.647,-139.38299999999998 125.73,-143.021 Z" />
        </g>
        <g
           style="fill-opacity:1.0;fill:rgb(237, 172, 170)"
           id="g_5">
          <path
             id="path16516"
             style="fill-opacity:1.0;fill:rgb(237, 172, 170)"
             d="M 136.643,-115.866 C 136.643,-115.866 165.743,-124.371 182.613,-95.857 C 196.36,-72.622 187.914,-33.548 166.291,-15.922 C 140.575,5.039999999999999 118.91499999999999,-117.815 136.643,-115.866 Z" />
        </g>
        <g
           style="stroke:rgb(188, 146, 89);stroke-opacity:1.0;stroke-width:10.0;stroke-linecap:round;stroke-linejoin:round"
           id="g_6">
          <path
             id="path16519"
             style="stroke:rgb(188, 146, 89);stroke-opacity:1.0;stroke-width:10.0;stroke-linecap:round;stroke-linejoin:round"
             d="M 203.905,-80.406 C 203.905,-80.406 199.07100000000003,-120.152 162.752,-130.334 " />
        </g>
        <g
           style="stroke:rgb(94, 66, 31);stroke-opacity:1.0;stroke-width:8.0;stroke-miterlimit:10.0;stroke-linecap:butt;stroke-linejoin:miter"
           id="g_7">
          <path
             id="path16522"
             style="stroke:rgb(94, 66, 31);stroke-opacity:1.0;stroke-width:8.0;stroke-miterlimit:10.0;stroke-linecap:butt;stroke-linejoin:miter"
             d="M 125.73,-143.021 C 145.495,-144.326 174.75,-145.446 196.922,-118.078 C 221.394,-87.87 221.865,-28.439 174.577,10.795 C 125.049,51.887 70.647,-139.38299999999998 125.73,-143.021 Z" />
        </g>
        <g
           style="fill-opacity:1.0;fill:rgb(219, 152, 151)"
           id="g_8">
          <path
             id="path16525"
             style="fill-opacity:1.0;fill:rgb(219, 152, 151)"
             d="M 130.917,-89.291 C 173.553,-111.448 189.319,-61.424 189.319,-61.424 C 189.32899999999998,-61.424 189.33,-61.434 189.34,-61.434 C 190.623,-73.862 188.733,-86.219 183.034,-95.859 C 166.17,-124.37299999999999 137.07,-115.865 137.07,-115.865 C 131.523,-116.47099999999999 129.836,-104.88199999999999 130.917,-89.291 Z" />
        </g>
      </g>
      <g
         style=""
         inkscape:label="ShapeLayer"
         id="g_9"
         inkscape:groupmode="layer">
        <g
           style="fill-opacity:1.0;fill:rgb(158, 118, 61);stroke:rgb(94, 66, 31);stroke-opacity:1.0;stroke-width:8.0;stroke-miterlimit:10.0;stroke-linecap:butt;stroke-linejoin:miter"
           id="g_10">
          <path
             id="path16529"
             style="fill-opacity:1.0;fill:rgb(158, 118, 61);stroke:rgb(94, 66, 31);stroke-opacity:1.0;stroke-width:8.0;stroke-miterlimit:10.0;stroke-linecap:butt;stroke-linejoin:miter"
             d="M -115.798,-143.021 C -135.563,-144.326 -164.818,-145.446 -186.99,-118.078 C -211.46200000000002,-87.87 -211.933,-28.439 -164.645,10.795 C -115.11700000000002,51.887 -60.715,-139.38299999999998 -115.798,-143.021 Z" />
        </g>
        <g
           style="stroke:rgb(188, 146, 89);stroke-opacity:1.0;stroke-width:10.0;stroke-linecap:round;stroke-linejoin:round"
           id="g_11">
          <path
             id="path16532"
             style="stroke:rgb(188, 146, 89);stroke-opacity:1.0;stroke-width:10.0;stroke-linecap:round;stroke-linejoin:round"
             d="M -194.126,-81.406 C -194.126,-81.406 -189.291,-121.152 -152.972,-131.334 " />
        </g>
        <g
           style="stroke:rgb(94, 66, 31);stroke-opacity:1.0;stroke-width:8.0;stroke-miterlimit:10.0;stroke-linecap:butt;stroke-linejoin:miter"
           id="g_12">
          <path
             id="path16535"
             style="stroke:rgb(94, 66, 31);stroke-opacity:1.0;stroke-width:8.0;stroke-miterlimit:10.0;stroke-linecap:butt;stroke-linejoin:miter"
             d="M -115.798,-143.021 C -135.563,-144.326 -164.818,-145.446 -186.99,-118.078 C -211.46200000000002,-87.87 -211.933,-28.439 -164.645,10.795 C -115.11700000000002,51.887 -60.715,-139.38299999999998 -115.798,-143.021 Z" />
        </g>
        <g
           style="fill-opacity:1.0;fill:rgb(237, 172, 170)"
           id="g_13">
          <path
             id="path16538"
             style="fill-opacity:1.0;fill:rgb(237, 172, 170)"
             d="M -126.711,-115.866 C -126.711,-115.866 -155.81199999999998,-124.371 -172.682,-95.857 C -186.42899999999997,-72.622 -177.983,-33.548 -156.36,-15.922 C -130.644,5.039999999999999 -108.983,-117.815 -126.711,-115.866 Z" />
        </g>
        <g
           style="fill-opacity:1.0;fill:rgb(219, 152, 151)"
           id="g_14">
          <path
             id="path16541"
             style="fill-opacity:1.0;fill:rgb(219, 152, 151)"
             d="M -120.56,-89.291 C -163.196,-111.448 -178.963,-61.424 -178.963,-61.424 C -178.97299999999998,-61.424 -178.973,-61.434 -178.983,-61.434 C -180.266,-73.862 -178.377,-86.219 -172.678,-95.859 C -155.814,-124.37299999999999 -126.714,-115.865 -126.714,-115.865 C -121.167,-116.47099999999999 -119.479,-104.88199999999999 -120.56,-89.291 Z" />
        </g>
      </g>
      <g
         style="fill-opacity:1.0;fill:rgb(158, 118, 61)"
         id="g_15">
        <path
           id="path16545"
           style="fill-opacity:1.0;fill:rgb(158, 118, 61)"
           d="M 169.587,-20.913 C 147.588,-64.908 159.229,-66.928 146.026,-110.813 C 130.821,-161.352 82.551,-207.093 5.303,-207.093 C -72.777,-207.093 -120.21499999999999,-161.352 -135.42,-110.813 C -148.623,-66.928 -136.982,-64.908 -158.981,-20.913 C -183.135,27.392 -193.335,159.087 5.303,159.087 C 203.941,159.087 193.74099999999999,27.392 169.587,-20.913 Z" />
      </g>
      <g
         style="fill-opacity:1.0;fill:rgb(188, 146, 89)"
         id="g_16">
        <path
           id="path16548"
           style="fill-opacity:1.0;fill:rgb(188, 146, 89)"
           d="M 156.11,-21.166 C 135.91600000000003,-61.551 146.602,-63.407 134.482,-103.692 C 120.525,-150.08499999999998 76.214,-192.073 5.303,-192.073 C -66.372,-192.073 -109.918,-150.08499999999998 -123.876,-103.692 C -135.996,-63.407 -125.30999999999999,-61.551 -145.504,-21.166 C -167.677,23.176 -177.04,144.067 5.303,144.067 C 187.646,144.067 178.28300000000002,23.176 156.11,-21.166 Z" />
      </g>
      <g
         style="fill-opacity:1.0;fill:rgb(199, 159, 107)"
         id="g_17">
        <path
           id="path16551"
           style="fill-opacity:1.0;fill:rgb(199, 159, 107)"
           d="M 96.859,-148.606 C 96.859,-125.07 56.144,-105.99 5.921,-105.99 C -44.302,-105.99 -85.016,-125.07 -85.016,-148.606 C -85.016,-172.142 -44.302,-191.222 5.921,-191.222 C 56.144,-191.222 96.859,-172.142 96.859,-148.606 Z" />
      </g>
      <g
         style=""
         id="g_18">
        <g
           style="stroke:rgb(255, 255, 255);stroke-opacity:1.0;stroke-width:6.0;stroke-linecap:round;stroke-linejoin:round"
           id="g_19">
          <path
             id="path16554"
             style="stroke:rgb(255, 255, 255);stroke-opacity:1.0;stroke-width:6.0;stroke-linecap:round;stroke-linejoin:round"
             d="M 62.717,-181.024 C 64.228,-180.53 65.795,-179.99599999999998 67.407,-179.42 " />
        </g>
        <g
           style="stroke:rgb(255, 255, 255);stroke-opacity:1.0;stroke-width:6.0;stroke-linecap:round;stroke-linejoin:round"
           id="g_20">
          <path
             id="path16557"
             style="stroke:rgb(255, 255, 255);stroke-opacity:1.0;stroke-width:6.0;stroke-linecap:round;stroke-linejoin:round"
             d="M 41.579,-186.44 C 41.579,-186.44 46.445,-185.681 54.078,-183.608 " />
        </g>
      </g>
      <g
         style="stroke:rgb(94, 66, 31);stroke-opacity:1.0;stroke-width:8.0;stroke-miterlimit:10.0;stroke-linecap:butt;stroke-linejoin:miter"
         id="g_21">
        <path
           id="path16561"
           style="stroke:rgb(94, 66, 31);stroke-opacity:1.0;stroke-width:8.0;stroke-miterlimit:10.0;stroke-linecap:butt;stroke-linejoin:miter"
           d="M 169.587,-20.913 C 147.588,-64.908 159.229,-66.928 146.026,-110.813 C 130.821,-161.352 82.551,-207.093 5.303,-207.093 C -72.777,-207.093 -120.21499999999999,-161.352 -135.42,-110.813 C -148.623,-66.928 -136.982,-64.908 -158.981,-20.913 C -183.135,27.392 -193.335,159.087 5.303,159.087 C 203.941,159.087 193.74099999999999,27.392 169.587,-20.913 Z" />
      </g>
      <g
         style="fill-opacity:1.0;fill:rgb(240, 216, 179)"
         id="g_22">
        <path
           id="path16564"
           style="fill-opacity:1.0;fill:rgb(240, 216, 179)"
           d="M 88.579,-75.949 C 49.77799999999999,-85.355 22.136,-59.29 10.891,-45.909 C 7.968999999999999,-42.432 2.637,-42.432 -0.285,-45.909 C -11.53,-59.29 -39.173,-85.355 -77.973,-75.949 C -129.418,-63.477 -137.213,-18.787 -132.017,4.597 C -127.163,26.438000000000002 -109.163,47.373 -80.556,57.662 C -77.104,58.903999999999996 -75.09,62.488 -75.875,66.071 C -79.345,81.916 -86.275,123.42000000000002 -70.075,146.877 C -67.263,150.949 -62.845,153.642 -57.943,154.316 C -50.561,155.331 -37.786,158.09300000000002 -27.048,165.544 C -10.072999999999997,177.323 5.303,176.601 5.303,176.601 C 5.303,176.601 20.679000000000002,177.323 37.654,165.544 C 48.391000000000005,158.09300000000002 61.166000000000004,155.331 68.548,154.316 C 73.45,153.642 77.86800000000001,150.949 80.68,146.877 C 96.88000000000001,123.42000000000002 89.951,81.916 86.481,66.071 C 85.696,62.488 87.71000000000001,58.903999999999996 91.162,57.662 C 119.769,47.373 137.76999999999998,26.438000000000002 142.623,4.597 C 147.82,-18.787 140.024,-63.477 88.579,-75.949 Z" />
      </g>
      <g
         style="fill-opacity:1.0;fill:rgb(219, 191, 151)"
         id="g_23">
        <path
           id="path16567"
           style="fill-opacity:1.0;fill:rgb(219, 191, 151)"
           d="M 134.093,-35.971 C 136.63899999999998,-29.917999999999996 134.20499999999998,-22.882 128.458,-19.704 C 88.758,2.25 37.067,-7.056 14.574,-11.647 C 7.8999999999999995,-13.009 1.0099999999999998,-12.951 -5.621,-11.396 C -61.748000000000005,1.7669999999999995 -99.51299999999999,-12.49 -116.496,-21.256 C -122.74,-24.479 -125.336,-32.126 -122.192,-38.41 C -116.70599999999999,-49.375 -105.011,-65.379 -76.315,-72.759 C -37.650999999999996,-82.703 -11.532,-59.293 -0.282,-45.913 C 2.638,-42.433 7.9670000000000005,-42.433 10.887,-45.913 C 22.137,-59.293 48.991,-81.64500000000001 87.791,-72.245 C 114.577,-65.74600000000001 127.398,-51.891999999999996 134.093,-35.971 Z" />
      </g>
      <g
         style="stroke:rgb(240, 216, 179);stroke-opacity:1.0;stroke-width:8.0;stroke-miterlimit:10.0;stroke-linecap:butt;stroke-linejoin:miter"
         id="g_24">
        <path
           id="path16570"
           style="stroke:rgb(240, 216, 179);stroke-opacity:1.0;stroke-width:8.0;stroke-miterlimit:10.0;stroke-linecap:butt;stroke-linejoin:miter"
           d="M 88.579,-75.949 C 49.77799999999999,-85.355 22.136,-59.29 10.891,-45.909 C 7.968999999999999,-42.432 2.637,-42.432 -0.285,-45.909 C -11.53,-59.29 -39.173,-85.355 -77.973,-75.949 C -129.418,-63.477 -137.213,-18.787 -132.017,4.597 C -127.163,26.438000000000002 -109.163,47.373 -80.556,57.662 C -77.104,58.903999999999996 -75.09,62.488 -75.875,66.071 C -79.345,81.916 -86.275,123.42000000000002 -70.075,146.877 C -67.263,150.949 -62.845,153.642 -57.943,154.316 C -50.561,155.331 -37.786,158.09300000000002 -27.048,165.544 C -10.072999999999997,177.323 5.303,176.601 5.303,176.601 C 5.303,176.601 20.679000000000002,177.323 37.654,165.544 C 48.391000000000005,158.09300000000002 61.166000000000004,154.331 68.548,153.316 C 73.45,152.642 77.86800000000001,150.949 80.68,146.877 C 96.88000000000001,123.42000000000002 89.951,81.916 86.481,66.071 C 85.696,62.488 87.71000000000001,58.903999999999996 91.162,57.662 C 119.769,47.373 137.76999999999998,26.438000000000002 142.623,4.597 C 147.82,-18.787 140.024,-63.477 88.579,-75.949 Z" />
      </g>
      <g
         style="fill-opacity:1.0;fill:rgb(158, 118, 61)"
         opacity="0.11"
         id="g_25">
        <path
           id="path16573"
           style="fill-opacity:1.0;fill:rgb(158, 118, 61)"
           d="M 91.856,131.627 C 90.18499999999999,138.227 86.60900000000001,145.514 83.799,149.584 C 80.989,153.654 73.44900000000001,153.64700000000002 68.549,154.317 C 61.169000000000004,155.327 48.389,158.097 37.649,165.547 C 20.679000000000002,177.327 5.299,176.597 5.299,176.597 C 5.299,176.597 -10.070999999999998,177.327 -27.051,165.547 C -37.781,158.097 -50.561,155.327 -57.941,154.317 C -62.841,153.64700000000002 -69.05,153.696 -72.457,150.111 C -76.29799999999999,146.07 -79.631,136.76999999999998 -81.201,131.67 C -68.89099999999999,135.07999999999998 -31.521,145.767 -17.101,154.037 C 0.8290000000000006,164.327 20.549,159.697 28.949,154.037 C 36.839,148.717 67.006,135.637 91.856,131.627 Z" />
      </g>
      <g
         style="stroke:rgb(178, 149, 114);stroke-opacity:1.0;stroke-width:8.0;stroke-linecap:round;stroke-linejoin:round"
         id="g_26">
        <path
           id="path16576"
           style="stroke:rgb(178, 149, 114);stroke-opacity:1.0;stroke-width:8.0;stroke-linecap:round;stroke-linejoin:round"
           d="M -70.986,150.908 C -53.775000000000006,156.034 -38.839,158.784 -27.847,165.744 C -9.237000000000002,177.526 5.303,176.601 5.303,176.601 C 5.303,176.601 20.678000000000004,177.323 37.654,165.544 C 47.836000000000006,158.479 62.656000000000006,155.688 81.313,150.908 " />
      </g>
      <g
         inkscape:label="NullLayer"
         opacity="1"
         id="g_27"
         inkscape:groupmode="layer">
        <g
           style=""
           inkscape:label="ShapeLayer"
           id="g_28"
           inkscape:groupmode="layer">
          <g
             style=""
             id="g_29">
            <g
               style="fill-opacity:1.0;fill:rgb(219, 191, 151)"
               id="g_30">
              <path
                 id="path16579"
                 style="fill-opacity:1.0;fill:rgb(219, 191, 151)"
                 d="M 35.881,85.862 C 34.406,85.213 29.804000000000002,85.359 23.167,84.726 C 20.483,84.47 13.009,83.945 5.922,83.945 C -1.165,83.945 -8.871,84.377 -11.558,84.606 C -18.201,85.17299999999999 -22.919999999999998,85.213 -24.395,85.862 C -26.395,86.74199999999999 -24.777,91.434 -22.277,95.229 C -18.733,100.608 -5.671999999999999,108.802 5.746,108.802 C 17.164,108.802 30.224999999999998,100.608 33.769,95.229 C 36.269,91.434 37.881,86.74199999999999 35.881,85.862 Z" />
            </g>
          </g>
          <g
             style="fill-opacity:1.0;fill:rgb(255, 244, 233)"
             id="g_31">
            <path
               id="path16583"
               style="fill-opacity:1.0;fill:rgb(255, 244, 233)"
               d="M 34.242,89.001 C 32.593999999999994,88.787 29.534999999999997,90.768 22.653,90.081 C 19.869999999999997,89.803 13.282,89.286 5.925,89.286 C -1.4320000000000004,89.286 -8.303,89.715 -11.089,89.965 C -17.978,90.583 -21.151999999999997,88.537 -22.749,89.001 C -25.796999999999997,89.88600000000001 -24.418,97.15299999999999 -21.823,100.948 C -18.145,106.327 -6.119000000000001,115.682 5.733,115.682 C 17.585,115.682 29.875000000000004,106.589 33.554,101.21 C 36.149,97.41499999999999 37.43,89.414 34.242,89.001 Z" />
          </g>
          <g
             style="fill-opacity:1.0;fill:rgb(63, 10, 36)"
             id="g_32">
            <path
               id="path16586"
               style="fill-opacity:1.0;fill:rgb(63, 10, 36)"
               d="M 34.242,89.001 C 32.766999999999996,88.352 29.136,88.426 22.499,87.793 C 19.814999999999998,87.537 13.012,87.084 5.925,87.084 C -1.162,87.084 -8.226,87.45 -10.913,87.679 C -17.556,88.246 -21.273999999999997,88.352 -22.749,89.001 C -24.749,89.881 -23.134,93.636 -20.634,97.431 C -17.09,102.81 -5.671999999999999,111.004 5.746,111.004 C 17.164,111.004 28.583000000000002,102.81 32.127,97.431 C 34.627,93.636 36.242,89.881 34.242,89.001 Z" />
          </g>
          <g
             style="fill-opacity:1.0;fill:rgb(178, 70, 96)"
             id="g_33">
            <path
               id="path16589"
               style="fill-opacity:1.0;fill:rgb(178, 70, 96)"
               d="M 23.022,105.559 C 18.095,108.61 11.917,111.007 5.744,111.007 C -0.6030000000000006,111.007 -6.949000000000001,108.287 -11.941,105.116 C -12.177000000000001,105.116 -9.552,106.691 -8.151,106.691 C -1.7469999999999999,106.691 5.555,107.59 5.555,107.59 C 5.555,107.59 13.255000000000003,105.813 19.484,106.941 C 20.823,107.184 23.697999999999997,105.559 23.022,105.559 Z" />
          </g>
          <g
             style="fill-opacity:1.0;fill:rgb(4, 0, 1)"
             id="g_34">
            <path
               id="path16592"
               style="fill-opacity:1.0;fill:rgb(4, 0, 1)"
               d="M 34.087,94.056 C 34.465,92.652 34.333999999999996,91.58800000000001 33.413,91.171 C 31.977999999999998,90.521 28.005000000000003,90.397 21.553,89.807 C 18.948,89.569 12.804,89.257 5.926,89.257 C -0.9580000000000002,89.257 -7.378,89.49000000000001 -9.991,89.703 C -16.442999999999998,90.22800000000001 -20.485,90.519 -21.919,91.171 C -22.839000000000002,91.58900000000001 -22.97,92.647 -22.598,94.051 C -23.785999999999998,91.612 -24.142000000000003,89.614 -22.751,89.003 C -21.272000000000002,88.353 -17.555999999999997,88.245 -10.911,87.679 C -8.222999999999999,87.45 -1.1600000000000001,87.083 5.926,87.083 C 13.012,87.083 19.813000000000002,87.538 22.498,87.794 C 29.137,88.426 32.765,88.358 34.24,89.003 C 35.636,89.614 35.275000000000006,91.61699999999999 34.087,94.056 Z" />
          </g>
        </g>
        <g
           style=""
           inkscape:label="ShapeLayer"
           id="g_35"
           inkscape:groupmode="layer">
          <g
             style="fill-opacity:1.0;fill:rgb(219, 191, 151)"
             id="g_36">
            <path
               id="path16596"
               style="fill-opacity:1.0;fill:rgb(219, 191, 151)"
               d="M 23.934,29.849 C 20.306,29.755 14.897,31.463 11.849,32.814 C 8.696,34.212 3.032,34.212 -0.121,32.814 C -3.169,31.463 -8.578,29.755 -12.206,29.849 C -23.493000000000002,30.141000000000002 -28.73,36.575 -28.625,47.042 C -28.546,54.944 -23.965,70.656 5.864,70.656 C 35.396,70.656 39.908,55.202 40.353,47.042 C 40.922000000000004,36.59 35.221000000000004,30.141000000000002 23.934,29.849 Z" />
          </g>
          <g
             style=""
             id="g_37">
            <g
               style="fill-opacity:1.0;fill:rgb(240, 216, 180)"
               id="g_38">
              <path
                 id="path16599"
                 style="fill-opacity:1.0;fill:rgb(240, 216, 180)"
                 d="M -0.269,46.986 C 2.2399999999999998,51.9 0.22299999999999986,57.953 -3.725,59.968 C -7.673,61.983000000000004 -12.515,59.79 -15.327,55.043 C -19.552,47.909 -17.766,42.214 -13.818,40.199 C -9.87,38.184 -4.199,39.287 -0.269,46.986 Z" />
            </g>
            <g
               style="fill-opacity:1.0;fill:rgb(103, 68, 48)"
               id="g_39">
              <path
                 id="path16602"
                 style="fill-opacity:1.0;fill:rgb(103, 68, 48)"
                 d="M -1.484,44.758 C 1.025,49.672000000000004 -0.14100000000000046,55.29 -4.089,57.305 C -8.037,59.32 -13.27,56.97 -15.779,52.056 C -18.288,47.141999999999996 -17.122,41.524 -13.174,39.509 C -9.225999999999999,37.494 -3.993,39.844 -1.484,44.758 Z" />
            </g>
            <g
               style="fill-opacity:1.0;fill:rgb(54, 22, 9)"
               id="g_40">
              <path
                 id="path16605"
                 style="fill-opacity:1.0;fill:rgb(54, 22, 9)"
                 d="M -1.485,44.758 C -1.016,45.677 -0.67,46.628 -0.457,47.57 C -2.976,42.72 -8.538,41.297 -12.282,43.208 C -16.026,45.119 -16.556,49.674 -14.08,54.567 C -14.723,53.833 -15.302,52.992 -15.78,52.056 C -18.291,47.138 -17.125,41.522999999999996 -13.177,39.507 C -9.229,37.491 -3.9960000000000004,39.84 -1.485,44.758 Z" />
            </g>
          </g>
          <g
             style=""
             id="g_41">
            <g
               style="fill-opacity:1.0;fill:rgb(240, 216, 180)"
               id="g_42">
              <path
                 id="path16609"
                 style="fill-opacity:1.0;fill:rgb(240, 216, 180)"
                 d="M 12.111,46.986 C 9.602,51.9 11.619,57.953 15.567,59.968 C 19.515,61.983000000000004 24.357,59.79 27.169,55.043 C 31.394,47.909 29.609,42.214 25.661,40.199 C 21.713,38.184 16.041,39.287 12.111,46.986 Z" />
            </g>
            <g
               style="fill-opacity:1.0;fill:rgb(103, 68, 48)"
               id="g_43">
              <path
                 id="path16612"
                 style="fill-opacity:1.0;fill:rgb(103, 68, 48)"
                 d="M 13.326,44.758 C 10.817,49.672000000000004 11.982999999999999,55.29 15.931,57.305 C 19.878999999999998,59.32 25.112,56.97 27.621,52.056 C 30.13,47.141999999999996 28.964,41.524 25.016,39.509 C 21.067999999999998,37.494 15.835,39.844 13.326,44.758 Z" />
            </g>
            <g
               style="fill-opacity:1.0;fill:rgb(54, 22, 9)"
               id="g_44">
              <path
                 id="path16615"
                 style="fill-opacity:1.0;fill:rgb(54, 22, 9)"
                 d="M 13.327,44.758 C 12.858,45.677 12.513,46.628 12.3,47.57 C 14.819,42.72 20.381,41.297 24.125,43.208 C 27.869,45.119 28.398,49.674 25.922,54.567 C 26.565,53.833 27.145,52.992 27.623,52.056 C 30.134,47.138 28.967,41.522999999999996 25.019,39.507 C 21.070999999999998,37.491 15.838000000000001,39.84 13.327,44.758 Z" />
            </g>
          </g>
        </g>
        <g
           style=""
           inkscape:label="ShapeLayer"
           transform="translate(25, 0.0) scale(-1.0, 1.0)"
           id="g_45"
           inkscape:groupmode="layer">
          <g
             transform="translate(14.736842)"
             style="fill:#dbbf97;fill-opacity:1"
             id="g_46">
            <path
               inkscape:connector-curvature="0"
               id="path16620"
               style="fill:#dbbf97;fill-opacity:1"
               d="m -38.523,9.822 c 0,19.516 -11.867,35.336 -25.26,35.336 -13.393,0 -25.261,-15.82 -25.261,-35.336 0,-19.516 11.868,-35.336 25.261,-35.336 13.393,0 25.26,15.82 25.26,35.336 z" />
          </g>
          <g
             transform="translate(14.736842)"
             id="g_47">
            <g
               style="fill:#111111;fill-opacity:1"
               id="g_48">
              <path
                 inkscape:connector-curvature="0"
                 id="path16623"
                 style="fill:#111111;fill-opacity:1"
                 d="m -39.533,4.77 c 0,19.516 -10.857,35.336 -24.25,35.336 -13.393,0 -24.25,-15.82 -24.25,-35.336 0,-19.516 10.857,-35.336 24.25,-35.336 13.393,0 24.25,15.82 24.25,35.336 z" />
            </g>
            <g
               style="fill:#f5f5f5;fill-opacity:1"
               id="g_49">
              <path
                 inkscape:connector-curvature="0"
                 id="path16626"
                 style="fill:#f5f5f5;fill-opacity:1"
                 d="m -50.461,-12.676 c 0,5.701 -5.964,1.141 -13.322,1.141 -7.358,0 -13.323,4.687 -13.323,-1.141 0,-3.63 5.965,-10.774 13.323,-10.774 7.358,0 13.322,7.145 13.322,10.774 z" />
            </g>
            <g
               style="fill:#484949;fill-opacity:1"
               id="g_50">
              <path
                 inkscape:connector-curvature="0"
                 id="path16629"
                 style="fill:#484949;fill-opacity:1"
                 d="m -46.701,12.524 c 0,7.079 -7.096,20.748 -17.082,20.748 -9.986,0 -17.082,-13.669 -17.082,-20.748 0,-11.357 7.096,-0.649 17.082,-0.649 9.986,0 17.082,-11.222 17.082,0.649 z" />
            </g>
          </g>
        </g>
        <g
           style=""
           inkscape:label="ShapeLayer"
           id="g_51"
           inkscape:groupmode="layer">
          <g
             style="fill-opacity:1.0;fill:rgb(219, 191, 151)"
             id="g_52">
            <path
               id="path16634"
               style="fill-opacity:1.0;fill:rgb(219, 191, 151)"
               d="M -38.523,9.822 C -38.523,29.337999999999997 -50.39,45.158 -63.783,45.158 C -77.176,45.158 -89.044,29.337999999999997 -89.044,9.822 C -89.044,-9.693999999999999 -77.176,-25.514 -63.783,-25.514 C -50.39,-25.514 -38.523,-9.693999999999999 -38.523,9.822 Z" />
          </g>
          <g
             style=""
             id="g_53">
            <g
               style="fill-opacity:1.0;fill:rgb(17, 17, 17)"
               id="g_54">
              <path
                 id="path16637"
                 style="fill-opacity:1.0;fill:rgb(17, 17, 17)"
                 d="M -39.533,4.77 C -39.533,24.285999999999998 -50.39,40.106 -63.783,40.106 C -77.176,40.106 -88.033,24.285999999999998 -88.033,4.77 C -88.033,-14.745999999999999 -77.176,-30.566 -63.783,-30.566 C -50.39,-30.566 -39.533,-14.745999999999999 -39.533,4.77 Z" />
            </g>
            <g
               style="fill-opacity:1.0;fill:rgb(245, 245, 245)"
               id="g_55">
              <path
                 id="path16640"
                 style="fill-opacity:1.0;fill:rgb(245, 245, 245)"
                 d="M -50.461,-12.676 C -50.461,-6.9750000000000005 -56.425000000000004,-11.535 -63.783,-11.535 C -71.141,-11.535 -77.106,-6.848 -77.106,-12.676 C -77.106,-16.306 -71.141,-23.45 -63.783,-23.45 C -56.425000000000004,-23.45 -50.461,-16.305 -50.461,-12.676 Z" />
            </g>
            <g
               style="fill-opacity:1.0;fill:rgb(72, 73, 73)"
               id="g_56">
              <path
                 id="path16643"
                 style="fill-opacity:1.0;fill:rgb(72, 73, 73)"
                 d="M -46.701,12.524 C -46.701,19.602999999999998 -53.797,33.272 -63.783,33.272 C -73.769,33.272 -80.865,19.602999999999998 -80.865,12.524 C -80.865,1.1669999999999998 -73.769,11.875 -63.783,11.875 C -53.797,11.875 -46.701,0.6529999999999987 -46.701,12.524 Z" />
            </g>
          </g>
        </g>
      </g>
    </g>
  </g>
</svg>
