<svg xmlns="http://www.w3.org/2000/svg" height="512" width="512" fill="none"><path d="M145 119c-19-1-47-2-68 24-23 29-23 85 22 122 47 39 98-142 46-146z" fill="#9e763d"/><path d="M135 145s-28-8-44 19c-13 22-5 59 15 76 25 20 46-97 29-95z" fill="#edacaa"/><path d="M71 179s4-38 39-48" stroke="#bc9259" stroke-width="9.5" stroke-linecap="round" stroke-linejoin="round"/><path d="M145 119c-19-1-47-2-68 24-23 29-23 85 22 122 47 39 98-142 46-146z" stroke="#5e421f" stroke-width="7.6" stroke-miterlimit="10"/><path d="M140 170c-40-21-55 27-55 27-2-12 0-24 6-33 16-27 43-19 43-19 6 0 7 11 6 25z" fill="#db9897"/><g><g><path d="M375 120c19-1 47-2 68 24 23 29 24 85-21 122-47 39-99-142-47-146z" fill="#9e763d"/><path d="M386 146s27-8 43 19c14 22 6 59-15 76-24 20-45-97-28-95z" fill="#edacaa"/><path d="M450 180s-5-38-39-48" stroke="#bc9259" stroke-width="9.5" stroke-linecap="round" stroke-linejoin="round"/><path d="M375 120c19-1 47-2 68 24 23 29 24 85-21 122-47 39-99-142-47-146z" stroke="#5e421f" stroke-width="7.6" stroke-miterlimit="10"/><path d="M380 171c41-21 56 27 56 27 1-12-1-24-6-33-16-27-44-19-44-19-5-1-7 10-6 25z" fill="#db9897"/></g><g><path d="M152 185c19-1 47-2 68 24 23 28 23 85-21 122-48 39-99-143-47-146z" fill="#9e763d" stroke="#5e421f" stroke-width="7.6" stroke-miterlimit="10"/><path d="M227 244s-5-38-40-48" stroke="#bc9259" stroke-width="9.5" stroke-linecap="round" stroke-linejoin="round"/><path d="M152 185c19-1 47-2 68 24 23 28 23 85-21 122-48 39-99-143-47-146z" stroke="#5e421f" stroke-width="7.6" stroke-miterlimit="10"/><path d="M162 211s28-8 44 19c13 22 5 59-15 76-25 20-45-97-29-95z" fill="#edacaa"/><path d="M157 236c40-21 55 27 55 27v-1c1-11 0-23-6-32-16-27-43-19-43-19-6-1-7 10-6 25z" fill="#db9897"/></g><path d="M417 236c-21-42-10-44-22-85-15-48-61-92-134-92-74 0-119 44-134 92-12 41-1 43-22 85-23 46-33 171 156 171s179-125 156-171z" fill="#9e763d"/><path d="M404 236c-19-38-9-40-20-79-14-44-56-83-123-83-68 0-109 39-123 83-11 39-1 41-20 79-21 42-30 157 143 157s164-115 143-157z" fill="#bc9259"/><path d="M348 115c0 22-39 40-86 40-48 0-87-18-87-40 0-23 39-41 87-41 47 0 86 18 86 41z" fill="#c79f6b"/><g stroke="#fff" stroke-width="6" stroke-linecap="round" stroke-linejoin="round"><path d="M316 84l4 2M296 79l11 3" stroke-width="5.699999999999999"/></g><path d="M417 236c-21-42-10-44-22-85-15-48-61-92-134-92-74 0-119 44-134 92-12 41-1 43-22 85-23 46-33 171 156 171s179-125 156-171z" stroke="#5e421f" stroke-width="7.6" stroke-miterlimit="10"/><path d="M340 184c-37-9-63 16-74 28-2 4-7 4-10 0-11-12-37-37-74-28a64 64 0 00-51 76c4 21 21 41 48 51 4 1 6 4 5 8-3 15-10 54 5 77 3 3 7 6 12 7 7 1 19 3 29 10 16 11 31 11 31 11s15 0 31-11c10-7 22-9 29-10 5-1 9-4 12-7 15-23 8-62 5-77-1-4 1-7 5-8 27-10 44-30 48-51 5-22-2-64-51-76z" fill="#f0d8b3"/><path d="M383 222c3 6 0 12-5 15-38 21-87 12-108 8h-19c-54 13-90-1-106-9-6-3-8-11-5-16 5-11 16-26 44-33 36-10 61 13 72 25 3 4 8 4 10 0 11-12 37-34 73-25 26 7 38 20 44 35z" fill="#dbbf97"/><path d="M340 184c-37-9-63 16-74 28-2 4-7 4-10 0-11-12-37-37-74-28a64 64 0 00-51 76c4 21 21 41 48 51 4 1 6 4 5 8-3 15-10 54 5 77 3 3 7 6 12 7 7 1 19 3 29 10 16 11 31 11 31 11s15 0 31-11c10-7 22-10 29-11 5-1 9-3 12-6 15-23 8-62 5-77-1-4 1-7 5-8 27-10 44-30 48-51 5-22-2-64-51-76z" stroke="#f0d8b3" stroke-width="7.6" stroke-miterlimit="10"/><path d="M343 381c-1 6-5 13-7 17-3 4-10 4-15 5-7 1-19 3-29 10-16 11-31 11-31 11s-15 0-31-11c-10-7-22-9-29-10-5-1-11-1-14-4-3-4-7-13-8-18 12 3 47 13 61 21 17 10 36 6 44 0 7-5 36-17 59-21z" opacity=".1" fill="#9e763d"/><path d="M189 399c16 5 30 8 41 14 17 12 31 11 31 11s15 0 31-11c9-6 24-9 41-14" stroke="#b29572" stroke-width="7.6" stroke-linecap="round" stroke-linejoin="round"/><g><path d="M278 342l-4-6c-2-2-5-6-11-6s-10 5-12 7l-3 9 1 5c2 5 8 11 14 11s13-6 15-11v-9z" fill="#dbbf97" style="fill-opacity:1.0;fill:rgb(219, 191, 151)"/><path d="M278 344l-5-5c-1-1-3-4-10-4-6 0-8 3-10 4-3 3-4 5-4 7v9c2 5 8 13 14 13 7 0 13-8 15-14 1-3 2-7 0-10z" fill="#fff4e9"/><path d="M278 344c0-2-2-4-5-7-1-1-4-4-10-4s-9 3-10 4c-3 3-4 7-4 9-1 2 0 4 1 7 2 6 7 11 13 11s12-6 14-11c2-4 2-6 1-9z" fill="#3f0a24"/><path d="M273 359c-3 3-6 5-10 5-3 0-6-1-9-4a325 325 0 019 0h9l1-1z" fill="#b24660"/><path d="M278 350v-4c-1-2-2-4-6-7-1-1-3-4-9-4-5 0-8 2-9 3-3 3-4 7-5 9v3-4c0-2 1-6 4-9 1-1 4-4 10-4s9 3 10 4c3 3 5 5 5 7v6z" fill="#040001"/></g><g><path d="M279 284l-12 3c-3 2-8 2-11 0l-12-3c-10 1-15 7-15 17 0 7 4 22 33 22 28 0 32-15 32-22 1-10-5-16-15-17z" fill="#dbbf97"/><g><path d="M256 301c2 4 0 10-4 12-3 2-8 0-11-5-4-6-2-12 2-14s9-1 13 7z" fill="#f0d8b4"/><path d="M255 299c2 4 1 10-3 11-4 2-9 0-11-5-2-4-1-10 2-11 4-2 9 0 12 5z" fill="#674430"/><path d="M255 299l1 2c-3-4-8-6-12-4-3 2-4 6-1 11l-2-3c-2-4-1-10 2-11 4-2 9 0 12 5z" fill="#361609"/></g><g><path d="M268 301c-3 4-1 10 3 12s8 0 11-5c4-6 2-12-2-14-3-2-9-1-12 7z" fill="#f0d8b4"/><path d="M269 299c-3 4-2 10 2 11 4 2 9 0 11-5 3-4 2-10-2-11-4-2-9 0-11 5z" fill="#674430"/><path d="M269 299l-1 2c2-4 7-6 11-4 3 2 4 6 2 11l1-3c3-4 2-10-2-11-4-2-9 0-11 5z" fill="#361609"/></g></g><g><path d="M307 265c0 19 11 34 24 34s24-15 24-34c0-18-11-33-24-33s-24 15-24 33z" fill="#dbbf97"/><g><path d="M308 261c0 18 10 33 23 33s23-15 23-33c0-19-10-34-23-34s-23 15-23 34z" fill="#111"/><path d="M318 244c0 5 6 1 13 1s13 4 13-1c0-3-6-10-13-10s-13 7-13 10z" fill="#f5f5f5"/><path d="M315 268c0 7 6 20 16 20 9 0 16-13 16-20 0-11-7-1-16-1-10 0-16-10-16 1z" fill="#484949"/></g></g><g><path d="M219 255c0 19-11 34-24 34s-24-15-24-34c0-18 11-33 24-33s24 15 24 33z" fill="#dbbf97"/><path d="M219 255c0 19-10 34-23 34s-23-15-23-34c0-18 10-33 23-33s23 15 23 33z" fill="#111"/><path d="M209 239c0 5-6 1-13 1s-13 4-13-1c0-4 6-11 13-11s13 7 13 11z" fill="#f5f5f5"/><path d="M212 262c0 7-7 20-16 20-10 0-16-13-16-20 0-10 6 0 16 0 9 0 16-11 16 0z" fill="#484949"/></g></g><g opacity=".2"><path d="M253 318l19 43c13 30 8 15 33 31 7 5 16-9 19 2 2 8 12-4-18 14 33-7 82-27 96-39-5-22-29 11-30 4-1-11 1-21 4-27l2-6s17 50 11 21c-6-27-19-133-39-130 0 0-19-11-16 73 1 15-11-1-11 7 0 0-35-45-47-44s-9 2-6 14c0 0-29-8-17 37z" fill="#9e763d"/></g><g><path d="M385 369s11-17 7-44c-3-27-4-46-22-53 0 0 8-49-23-49-24-1-4 57-11 68 0 0-49-49-72-51-11-1-16 8-12 19 0 0-12-1-13 13-2 13 25 26 29 46 4 24 7 53 29 73s79 3 88-22z" fill="#e9c9a5"/><path d="M245 288v-5c-3-10 3-18 20-1s25 25 29 27c7 2 5-6 5-6-5-11-22-23-31-32l-13-14c1-18 16-10 31 1 13 10 33 28 41 33 9 6 8 2 10 0l2-3-3 5c9-17-12-81 11-58 23 22 9 71 15 74 5 2 7-4 7-4l2-14c4-15 18 11 19 12-7-11-10-27-20-31 0 0 8-49-23-49-23-1-4 56-11 68 0 0-48-50-71-51-12-1-17 8-12 19 0 0-12-1-14 13 0 4 2 9 6 16z" fill="#fce3c7"/><path d="M262 314c3 5 5-1 6 4 4 24 7 53 29 73s79 3 88-22c0 0 11-17 7-44l-2-13s-1 56-42 59c-32 2-46 1-86-57z" fill="#dcb07f"/><path d="M385 369s11-17 7-44c-3-27-4-46-22-53 0 0-1-50-23-49-24 0-5 56-11 68 0 0-48-50-72-51-11-1-16 8-12 19 0 0-12-1-13 13-2 13 25 26 29 46 4 24 7 53 29 73s79 3 88-22zM336 291v1M370 272s3 21-1 35M252 259s30 14 47 44" stroke="#946037" stroke-width="7.6" stroke-linecap="round" stroke-linejoin="round"/><g><path d="M393 444s-15-26-16-43c-1-18 3-29 3-29l-9 10-3-12c-1-2-3-2-4-1l-8 8-10-13c-2-1-4-1-5 1l-5 16-16-6c-2-1-3 0-3 2v19l-19-8s21 15 24 32l5 24s12 8 29 8c30 0 37-8 37-8z" fill="#9e763d"/><path d="M342 450s12 4 28 1c19-2 23-7 23-7l-13-26v4c-3-14-19-29-30-17-8 9-5 18-5 29 0 8-3 16-3 16z" fill="#bc9259"/><path d="M392 442s-14-24-15-41c0-11 3-20 6-26M299 393s20 11 23 27l5 22" stroke="#5e421f" stroke-width="7.6" stroke-linecap="round" stroke-linejoin="round"/></g></g><g><path d="M118 296s-11-18-7-47c4-28 18-60 39-59 0 0 17-36 34-45 14-6 22 2 22 9 0 0 8-11 20-11 13 1 17 13 16 25 0 0 12-4 17 9s-14 45-18 65c-4 25-7 56-30 77s-83 3-93-23z" fill="#e9c9a5"/><path d="M257 195l-1-5c0-10-8-17-21 4-14 23-16 34-21 37-6 3-5-5-5-5 3-12 13-30 20-41 7-12 9-19 9-19-5-18-17-12-29 4-11 13-20 35-25 44-4 8-10 3-10 2l1-3c4-16 23-50 23-50-1-12-10-11-26 10-19 24-23 56-29 59-5 3-8-3-8-3l5-17c-3-16-16-3-17-3 7-11 16-20 26-19 0 0 17-36 35-45 13-6 21 2 22 9 0 0 8-11 20-11 12 1 17 13 15 25 0 0 12-4 17 9 2 5 1 11-1 18z" fill="#fce3c7"/><path d="M246 226l-5 16c-4 25-7 56-30 77s-83 3-93-23c0 0-11-18-7-47l2-13s1 59 44 62c34 3 63-2 89-72z" fill="#dcb07f"/><path d="M118 296s-11-18-7-47c4-28 18-60 39-59 0 0 17-36 34-45 14-6 22 2 22 9 0 0 8-11 20-11 13 1 17 13 16 25 0 0 12-4 17 9s-14 45-18 65c-4 25-7 56-30 77s-83 3-93-23zM206 154s-23 31-32 61M151 186s-10 23-14 40M242 168s-21 24-34 58" stroke="#946037" stroke-width="8" stroke-linecap="round" stroke-linejoin="round"/><path d="M93 469s32-121 33-140-3-29-3-29l10 9 4-12c0-2 2-2 4-1l8 9 11-14c1-2 4-1 4 1l5 17 18-7c2-1 3 1 3 2v20l20-8s-22 15-26 33l-15 121s-14 8-34 8c-34 0-42-9-42-9z" fill="#9e763d"/><path d="M151 476s-14 3-32 1c-22-3-26-8-26-8s22-82 30-121l2 4c3-15 21-30 32-17 9 10 5 34 1 68l-7 73z" fill="#bc9259"/><path d="M94 467s31-119 32-138c1-11-2-21-5-27M209 321s-22 12-25 28l-15 118" stroke="#5e421f" stroke-width="8" stroke-linecap="round" stroke-linejoin="round"/></g></svg>
