<svg xmlns="http://www.w3.org/2000/svg" width="512" height="512" fill="none"><g><g><path d="M375 120c19-1 47-2 68 24 23 29 24 85-21 122-47 39-99-142-47-146z" fill="#9e763d"/><path d="M386 146s27-8 43 19c14 22 6 59-15 76-24 20-45-97-28-95z" fill="#edacaa"/><path d="M450 180s-5-38-39-48" stroke="#bc9259" stroke-width="9.5" stroke-linecap="round" stroke-linejoin="round"/><path d="M375 120c19-1 47-2 68 24 23 29 24 85-21 122-47 39-99-142-47-146z" stroke="#5e421f" stroke-width="7.6" stroke-miterlimit="10"/><path d="M380 171c41-21 56 27 56 27 1-12-1-24-6-33-16-27-44-19-44-19-5-1-7 10-6 25z" fill="#db9897"/></g><g><path d="M146 120c-19-1-47-2-68 24-23 29-23 85 22 122 47 39 98-142 46-146z" fill="#9e763d" stroke="#5e421f" stroke-width="7.6" stroke-miterlimit="10"/><path d="M72 179s4-38 39-48" stroke="#bc9259" stroke-width="9.5" stroke-linecap="round" stroke-linejoin="round"/><path d="M146 120c-19-1-47-2-68 24-23 29-23 85 22 122 47 39 98-142 46-146z" stroke="#5e421f" stroke-width="7.6" stroke-miterlimit="10"/><path d="M136 146s-28-8-44 19c-13 22-5 59 15 76 25 20 45-97 29-95z" fill="#edacaa"/><path d="M141 171c-40-21-55 27-55 27-1-12 1-24 6-33 16-27 44-19 44-19 5-1 6 10 5 25z" fill="#db9897"/></g><path d="M417 236c-21-42-10-44-22-85-15-48-61-92-134-92-74 0-119 44-134 92-12 41-1 43-22 85-23 46-33 171 156 171s179-125 156-171z" fill="#9e763d"/><path d="M404 236c-19-38-9-40-20-79-14-44-56-83-123-83-68 0-109 39-123 83-11 39-1 41-20 79-21 42-30 157 143 157s164-115 143-157z" fill="#bc9259"/><path d="M348 115c0 22-39 40-86 40-48 0-87-18-87-40 0-23 39-41 87-41 47 0 86 18 86 41z" fill="#c79f6b"/><g stroke="#fff" stroke-width="6" stroke-linecap="round" stroke-linejoin="round"><path d="M316 84l4 2M296 79l11 3" stroke-width="5.699999999999999"/></g><path d="M417 236c-21-42-10-44-22-85-15-48-61-92-134-92-74 0-119 44-134 92-12 41-1 43-22 85-23 46-33 171 156 171s179-125 156-171z" stroke="#5e421f" stroke-width="7.6" stroke-miterlimit="10"/><path d="M340 184c-37-9-63 16-74 28-2 4-7 4-10 0-11-12-37-37-74-28a64 64 0 00-51 76c4 21 21 41 48 51 4 1 6 4 5 8-3 15-10 54 5 77 3 3 7 6 12 7 7 1 19 3 29 10 16 11 31 11 31 11s15 0 31-11c10-7 22-9 29-10 5-1 9-4 12-7 15-23 8-62 5-77-1-4 1-7 5-8 27-10 44-30 48-51 5-22-2-64-51-76z" fill="#f0d8b3"/><path d="M383 222c3 6 0 12-5 15-38 21-87 12-108 8h-19c-54 13-90-1-106-9-6-3-8-11-5-16 5-11 16-26 44-33 36-10 61 13 72 25 3 4 8 4 10 0 11-12 37-34 73-25 26 7 38 20 44 35z" fill="#dbbf97"/><path d="M340 184c-37-9-63 16-74 28-2 4-7 4-10 0-11-12-37-37-74-28a64 64 0 00-51 76c4 21 21 41 48 51 4 1 6 4 5 8-3 15-10 54 5 77 3 3 7 6 12 7 7 1 19 3 29 10 16 11 31 11 31 11s15 0 31-11c10-7 22-10 29-11 5-1 9-3 12-6 15-23 8-62 5-77-1-4 1-7 5-8 27-10 44-30 48-51 5-22-2-64-51-76z" stroke="#f0d8b3" stroke-width="7.6" stroke-miterlimit="10"/><path d="M343 381c-1 6-5 13-7 17-3 4-10 4-15 5-7 1-19 3-29 10-16 11-31 11-31 11s-15 0-31-11c-10-7-22-9-29-10-5-1-11-1-14-4-3-4-7-13-8-18 12 3 47 13 61 21 17 10 36 6 44 0 7-5 36-17 59-21z" opacity=".1" fill="#9e763d"/><path d="M189 399c16 5 30 8 41 14 17 12 31 11 31 11s15 0 31-11c9-6 24-9 41-14" stroke="#b29572" stroke-width="7.6" stroke-linecap="round" stroke-linejoin="round"/><g><path d="M314 334c-2-1-11 2-23 3a271 271 0 01-59 0c-12-1-21-4-23-3-4 2-1 8 3 15 7 9 30 23 50 23s42-14 49-23c4-7 7-13 3-15z" fill="#dbbf97" style="fill-opacity:1.0;fill:rgb(219, 191, 151)"/><path d="M312 338c-3-1-8 5-20 7a292 292 0 01-61 0c-12-2-17-8-19-7-6 1-2 13 3 19 6 10 26 25 47 25 20 0 40-15 47-25 4-6 8-18 3-19z" fill="#fff4e9"/><path d="M312 338c-3-1-9 1-21 3a271 271 0 01-59 0c-12-2-18-4-20-3-4 1-1 8 3 15 7 9 27 23 47 23s40-14 46-23c4-7 7-14 4-15z" fill="#3f0a24"/><path d="M292 367c-9 5-20 9-30 9-12 0-23-4-31-10-2-5 1-11 6-13 11-5 24 1 24 1s14-5 25-1c5 2 8 9 6 14z" fill="#b24660"/><path d="M311 347c1-3 1-5-1-5-2-2-8 1-20 3a255 255 0 01-57 0c-11-2-17-5-20-3-2 0-2 2-1 5-2-5-3-8 0-9 2-1 8 1 20 3a271 271 0 0059 0c12-2 18-4 21-3 2 1 1 4-1 9z" fill="#040001"/></g><g><path d="M279 284l-12 3c-3 2-8 2-11 0l-12-3c-10 1-15 7-15 17 0 7 4 22 33 22 28 0 32-15 32-22 1-10-5-16-15-17z" fill="#dbbf97"/><g><path d="M256 301c2 4 0 10-4 12-3 2-8 0-11-5-4-6-2-12 2-14s9-1 13 7z" fill="#f0d8b4"/><path d="M255 299c2 4 1 10-3 11-4 2-9 0-11-5-2-4-1-10 2-11 4-2 9 0 12 5z" fill="#674430"/><path d="M255 299l1 2c-3-4-8-6-12-4-3 2-4 6-1 11l-2-3c-2-4-1-10 2-11 4-2 9 0 12 5z" fill="#361609"/></g><g><path d="M268 301c-3 4-1 10 3 12s8 0 11-5c4-6 2-12-2-14-3-2-9-1-12 7z" fill="#f0d8b4"/><path d="M269 299c-3 4-2 10 2 11 4 2 9 0 11-5 3-4 2-10-2-11-4-2-9 0-11 5z" fill="#674430"/><path d="M269 299l-1 2c2-4 7-6 11-4 3 2 4 6 2 11l1-3c3-4 2-10-2-11-4-2-9 0-11 5z" fill="#361609"/></g></g><g><path d="M307 265c0 19 11 34 24 34s24-15 24-34c0-18-11-33-24-33s-24 15-24 33z" fill="#dbbf97"/><g><path d="M308 261c0 18 10 33 23 33s23-15 23-33c0-19-10-34-23-34s-23 15-23 34z" fill="#111"/><path d="M318 244c0 5 6 1 13 1s13 4 13-1c0-3-6-10-13-10s-13 7-13 10z" fill="#f5f5f5"/><path d="M315 268c0 7 6 20 16 20 9 0 16-13 16-20 0-11-7-1-16-1-10 0-16-10-16 1z" fill="#484949"/></g></g><g><path d="M219 265c0 19-11 34-24 34-12 0-24-15-24-34 0-18 12-33 24-33 13 0 24 15 24 33z" fill="#dbbf97"/><g><path d="M218 261c0 18-10 33-23 33-12 0-23-15-23-33 0-19 11-34 23-34 13 0 23 15 23 34z" fill="#111"/><path d="M208 244c0 5-6 1-13 1s-12 4-12-1c0-3 5-10 12-10s13 7 13 10z" fill="#f5f5f5"/><path d="M212 268c0 7-7 20-17 20-9 0-16-13-16-20 0-11 7-1 16-1 10 0 17-10 17 1z" fill="#484949"/></g></g></g></svg>