<?xml version="1.0" ?>
<svg xmlns:inkscape="http://www.inkscape.org/namespaces/inkscape" xmlns:sodipodi="http://sodipodi.sourceforge.net/DTD/sodipodi-0.dtd" xmlns="http://www.w3.org/2000/svg" width="512" height="512" viewBox="0 0 512 512" version="1.1" id="_password_peek_-_close" sodipodi:docname="_password_peek - close" inkscape:export-xdpi="96" inkscape:export-ydpi="96" style="fill: none; stroke: none">
   <defs/>
   <sodipodi:namedview inkscape:pagecheckerboard="true" borderlayer="true" bordercolor="#666666" pagecolor="#ffffff"/>
   <g inkscape:groupmode="layer" id="g_1" opacity="0.0" transform="translate(90.835, 246.961) scale(-1.0, 1.0)" inkscape:label="ShapeLayer" style="">
      <g id="g_2" style="fill-opacity:1.0;fill:rgb(158, 118, 61)">
         <path d="M 125.645,131.596 C 126.24,131.401 127.575,130.833 128.24,130.673 C 129.44400000000002,130.383 131.137,129.806 135.03,127.775 C 136.215,127.155 137.494,126.52499999999999 138.007,126.365 C 138.37800000000001,126.249 137.527,127.039 132.831,129.954 C 138.006,126.912 132.952,132.912 147.472,120.625 C 142.369,99.295 146.337,121.383 146.172,121.398 C 145.882,121.42399999999999 146.257,121.087 146.596,120.819 C 146.78,120.68900000000001 146.92299999999997,120.583 147.015,120.505 C 147.015,120.505 148.452,119.446 147.351,119.725 C 146.276,119.997 143.387,121.26100000000001 140.249,123.09 C 140.249,123.09 136.971,124.531 134.044,126.113 C 131.84400000000002,127.30199999999999 130.7,128.069 130.712,128.153 C 130.712,128.153 130.83999999999997,127.98700000000001 128.938,129.09 C 127.03599999999999,130.193 127.58600000000001,129.885 128.061,129.762 C 128.061,129.762 123.38199999999999,132.33700000000002 125.645,131.596 Z" style="fill-opacity:1.0;fill:rgb(158, 118, 61)"/>
      </g>
   </g>
   <g inkscape:groupmode="layer" id="g_3" opacity="0.0" transform="translate(254.635, 247.961)" inkscape:label="ShapeLayer" style="">
      <g id="g_4" style="fill-opacity:1.0;fill:rgb(158, 118, 61)">
         <path d="M 87.03,135.071 C 87.88,134.766 90.078,134.27599999999998 92.538,135.42 C 96.886,137.44099999999997 95.19500000000001,136.33599999999998 101.888,135.85 C 103.92200000000001,135.688 105.615,133.399 106.758,134.301 C 107.58699999999999,134.95499999999998 81.807,141.69899999999998 51.49,160.266 C 84.436,153.527 132.952,132.912 147.472,120.625 C 142.369,99.295 118.661,128.31300000000002 118.205,127.697 C 117.401,126.611 117.70599999999999,125.30199999999999 118.067,124.445 C 118.30099999999999,124.118 118.467,123.812 118.631,123.753 C 118.631,123.753 140.554,141.777 134.546,113.38 C 128.684,85.67099999999999 116.52499999999999,124.51599999999999 111.487,126.32 C 111.487,126.32 106.768,128.01 107.491,127.745 C 107.619,127.69800000000001 104.643,128.76500000000001 104.6,128.78 C 104.6,128.78 95.771,131.945 92.721,133.037 C 89.671,134.12900000000002 90.547,133.816 91.203,133.58 C 91.203,133.58 83.796,136.233 87.03,135.071 Z" style="fill-opacity:1.0;fill:rgb(158, 118, 61)"/>
      </g>
   </g>
   <g inkscape:groupmode="layer" id="g_5" transform="translate(228.49900000000002, 639.427) scale(0.95, 0.95) rotate(19, 150.003, 211.463)" inkscape:label="ShapeLayer" style="">
      <g id="g_6" style="fill-opacity:1.0;fill:rgb(233, 201, 165)">
         <path d="M 158.002,30.408 C 158.002,30.408 159.55100000000002,13.374 156.721,-15.376 C 153.959,-43.437 141.55999999999997,-71.375 138.158,-76.84 C 138.158,-76.84 123.54,-113.126 110.861,-121.787 C 101.324,-128.30100000000002 103.385,-123.087 102.888,-115.812 C 102.888,-115.812 94.618,-125.65 85.917,-125.277 C 77.21600000000001,-124.904 71.87700000000001,-113.737 73.12,-101.612 C 73.12,-101.612 66.102,-100.88 62.796,-91.3 C 58.466,-78.74199999999999 76.0,-35.085 80.13,-14.627 C 85.101,9.999 85.878,13.777000000000001 91.476,44.341 C 97.074,74.905 159.678,57.891000000000005 158.002,30.408 Z" style="fill-opacity:1.0;fill:rgb(233, 201, 165)"/>
      </g>
      <g id="g_7" style="fill-opacity:1.0;fill:rgb(252, 227, 199)">
         <path d="M 64.06,-73.479 C 64.641,-75.109 64.96100000000001,-76.829 64.9,-78.479 C 64.512,-88.869 76.732,-98.429 85.959,-77.223 C 95.784,-54.643 98.932,-42.248000000000005 102.23,-39.658 C 106.571,-36.249 106.399,-44.978 106.399,-44.978 C 104.297,-56.628 94.246,-76.214 89.149,-87.81 C 84.054,-99.4 75.586,-103.328 75.586,-103.328 C 79.282,-121.328 91.072,-114.76299999999999 99.915,-99.538 C 107.902,-85.78699999999999 119.156,-65.95 122.397,-57.039 C 125.641,-48.119 129.732,-53.09 129.968,-54.119 C 130.20499999999998,-55.149 129.502,-57.959 129.502,-57.959 C 126.44500000000001,-73.099 107.314,-106.568 107.314,-106.568 C 108.297,-117.888 108.492,-115.22500000000001 119.816,-94.129 C 132.95600000000002,-69.65 150.51399999999998,-40.635999999999996 151.54,-37.516 C 152.44199999999998,-34.774 151.418,-38.881 151.418,-38.881 C 151.418,-38.881 142.579,-54.608 142.579,-54.608 C 141.39100000000002,-63.515 145.898,-54.162 146.257,-53.662 C 141.413,-65.502 141.753,-76.609 138.301,-76.838 C 138.301,-76.838 123.77499999999999,-113.135 111.097,-121.789 C 101.55999999999999,-128.299 103.61999999999999,-123.087 103.118,-115.807 C 103.118,-115.807 94.85300000000001,-125.65899999999999 86.149,-125.279 C 77.451,-124.899 72.113,-113.738 73.354,-101.608 C 73.354,-101.608 66.234,-100.91300000000001 63.027,-91.299 C 61.635,-87.12 62.546,-80.759 64.06,-73.479 Z" style="fill-opacity:1.0;fill:rgb(252, 227, 199)"/>
      </g>
      <g id="g_8" style="fill-opacity:1.0;fill:rgb(220, 176, 127)">
         <path d="M 72.743,-42.351 C 74.16499999999999,-36.672 80.03,-19.547 80.985,-14.74 C 85.882,9.905 86.78099999999999,13.295999999999996 91.955,44.096 C 97.127,74.882 159.791,57.906 157.821,30.381 C 157.821,30.381 159.135,13.373 156.339,-15.374 C 155.901,-19.880000000000003 155.261,-24.499000000000002 154.428,-29.076 C 154.428,-29.076 168.727,30.165 126.056,33.44 C 92.555,36.010999999999996 90.97,27.662000000000006 72.743,-42.351 Z" style="fill-opacity:1.0;fill:rgb(220, 176, 127)"/>
      </g>
      <g id="g_9" style="stroke:rgb(148, 96, 55);stroke-opacity:1.0;stroke-width:8.0;stroke-linecap:round;stroke-linejoin:round">
         <path d="M 158.002,30.408 C 158.002,30.408 160.416,13.276000000000002 156.721,-15.376 C 154.805,-30.215 141.81599999999997,-71.75800000000001 138.158,-76.84 C 138.158,-76.84 123.54,-113.126 110.861,-121.787 C 101.324,-128.30100000000002 98.04,-121.916 102.888,-115.812 C 102.888,-115.812 94.618,-125.65 85.917,-125.277 C 77.21600000000001,-124.904 71.87700000000001,-113.737 73.12,-101.612 C 73.12,-101.612 65.967,-101.375 62.796,-91.3 C 58.814,-78.628 76.0,-35.085 80.13,-14.627 C 85.101,9.999 85.878,13.777000000000001 91.476,44.341 C 97.074,74.905 159.678,57.891000000000005 158.002,30.408 Z" style="stroke:rgb(148, 96, 55);stroke-opacity:1.0;stroke-width:8.0;stroke-linecap:round;stroke-linejoin:round"/>
      </g>
      <g id="g_10" style="stroke:rgb(148, 96, 55);stroke-opacity:1.0;stroke-width:8.0;stroke-linecap:round;stroke-linejoin:round">
         <path d="M 102.888,-115.812 C 102.888,-115.812 123.273,-86.005 129.737,-55.865 " style="stroke:rgb(148, 96, 55);stroke-opacity:1.0;stroke-width:8.0;stroke-linecap:round;stroke-linejoin:round"/>
      </g>
      <g id="g_11" style="stroke:rgb(148, 96, 55);stroke-opacity:1.0;stroke-width:8.0;stroke-linecap:round;stroke-linejoin:round">
         <path d="M 138.271,-76.891 C 138.271,-76.891 148.92000000000002,-54.895 151.566,-37.773 " style="stroke:rgb(148, 96, 55);stroke-opacity:1.0;stroke-width:8.0;stroke-linecap:round;stroke-linejoin:round"/>
      </g>
      <g id="g_12" style="stroke:rgb(148, 96, 55);stroke-opacity:1.0;stroke-width:8.0;stroke-linecap:round;stroke-linejoin:round">
         <path d="M 73.894,-101.727 C 73.894,-101.727 90.658,-109.625 107.348,-44.337 " style="stroke:rgb(148, 96, 55);stroke-opacity:1.0;stroke-width:8.0;stroke-linecap:round;stroke-linejoin:round"/>
      </g>
      <g id="g_13" style="">
         <g id="g_14" style="fill-opacity:1.0;fill:rgb(158, 118, 61)">
            <path d="M 179.125,164.75 C 179.125,164.75 157.75099999999998,83.001 156.688,64.313 C 155.625,45.625 154.313,35.563 154.313,35.563 C 154.313,35.563 156.125,41.75 156.125,41.75 C 156.125,41.75 157.5,35 157.5,35 C 156.937,33.187 155.063,29.812 153.75,31.25 C 153.75,31.25 150,36.625 150,36.625 C 150,36.625 147.938,26.938 147.938,26.938 C 146.688,25.375 144.12599999999998,25.812 143.563,27.75 C 143.563,27.75 138.313,45 138.313,45 C 138.313,45 129.438,29.438 129.438,29.438 C 127.81299999999999,28.813 126,30.0 126,31.75 C 126,31.75 108,54 108,54 C 108,54 93.75,42.25 93.75,42.25 C 93.75,42.25 95.125,66.437 98.625,84.625 C 102.125,102.813 105.75,185.75 105.75,185.75 C 105.75,185.75 97.062,186.50099999999998 116.75,186.438 C 151.063,186.375 179.125,164.75 179.125,164.75 Z" style="fill-opacity:1.0;fill:rgb(158, 118, 61)"/>
         </g>
         <g id="g_15" style="fill-opacity:1.0;fill:rgb(188, 146, 89)">
            <path d="M 121.688,186.5 C 121.688,186.5 115.687,188.313 133.875,185.875 C 155.375,183.0 179.125,164.75 179.125,164.75 C 179.125,164.75 168.188,122.313 159.875,83.125 C 159.875,83.125 157.875,87.125 157.875,87.125 C 155.125,72.5 137.438,57.25 125.688,70.563 C 117.438,79.938 120.625,104.37499999999999 124.75,138.063 C 128.75,170.37599999999998 121.688,186.5 121.688,186.5 Z" style="fill-opacity:1.0;fill:rgb(188, 146, 89)"/>
         </g>
         <g id="g_16" style="stroke:rgb(94, 66, 31);stroke-opacity:1.0;stroke-width:8.0;stroke-linecap:round;stroke-linejoin:round">
            <path d="M 177.688,163.125 C 177.688,163.125 157.75099999999998,83.001 156.688,64.313 C 156.063,52.938 154.875,42.813 157.625,37 " style="stroke:rgb(94, 66, 31);stroke-opacity:1.0;stroke-width:8.0;stroke-linecap:round;stroke-linejoin:round"/>
         </g>
         <g id="g_17" style="stroke:rgb(94, 66, 31);stroke-opacity:1.0;stroke-width:8.0;stroke-linecap:round;stroke-linejoin:round">
            <path d="M 92.5,46.438 C 92.5,46.438 95.687,67.937 98.625,84.625 C 101.813,102.875 105,182.875 105,182.875 " style="stroke:rgb(94, 66, 31);stroke-opacity:1.0;stroke-width:8.0;stroke-linecap:round;stroke-linejoin:round"/>
         </g>
      </g>
   </g>
   <g inkscape:groupmode="layer" id="g_18" transform="translate(-22.50499999999998, 649.427) scale(-0.95, 0.95) rotate(-12.879, 150.003, 211.463)" inkscape:label="ShapeLayer" style="">
      <g id="g_19" style="fill-opacity:1.0;fill:rgb(233, 201, 165)">
         <path d="M 158.002,30.408 C 158.002,30.408 159.55100000000002,13.374 156.721,-15.376 C 153.959,-43.437 141.55999999999997,-71.375 138.158,-76.84 C 138.158,-76.84 123.54,-113.126 110.861,-121.787 C 101.324,-128.30100000000002 103.385,-123.087 102.888,-115.812 C 102.888,-115.812 94.618,-125.65 85.917,-125.277 C 77.21600000000001,-124.904 71.87700000000001,-113.737 73.12,-101.612 C 73.12,-101.612 66.102,-100.88 62.796,-91.3 C 58.466,-78.74199999999999 76.0,-35.085 80.13,-14.627 C 85.101,9.999 85.878,13.777000000000001 91.476,44.341 C 97.074,74.905 159.678,57.891000000000005 158.002,30.408 Z" style="fill-opacity:1.0;fill:rgb(233, 201, 165)"/>
      </g>
      <g id="g_20" style="fill-opacity:1.0;fill:rgb(252, 227, 199)">
         <path d="M 64.06,-73.479 C 64.641,-75.109 64.96100000000001,-76.829 64.9,-78.479 C 64.512,-88.869 76.732,-98.429 85.959,-77.223 C 95.784,-54.643 98.932,-42.248000000000005 102.23,-39.658 C 106.571,-36.249 106.399,-44.978 106.399,-44.978 C 104.297,-56.628 94.246,-76.214 89.149,-87.81 C 84.054,-99.4 75.586,-103.328 75.586,-103.328 C 79.282,-121.328 91.072,-114.76299999999999 99.915,-99.538 C 107.902,-85.78699999999999 119.156,-65.95 122.397,-57.039 C 125.641,-48.119 129.732,-53.09 129.968,-54.119 C 130.20499999999998,-55.149 129.502,-57.959 129.502,-57.959 C 126.44500000000001,-73.099 107.314,-106.568 107.314,-106.568 C 108.297,-117.888 108.492,-115.22500000000001 119.816,-94.129 C 132.95600000000002,-69.65 150.51399999999998,-40.635999999999996 151.54,-37.516 C 152.44199999999998,-34.774 151.418,-38.881 151.418,-38.881 C 151.418,-38.881 142.579,-54.608 142.579,-54.608 C 141.39100000000002,-63.515 145.898,-54.162 146.257,-53.662 C 141.413,-65.502 141.753,-76.609 138.301,-76.838 C 138.301,-76.838 123.77499999999999,-113.135 111.097,-121.789 C 101.55999999999999,-128.299 103.61999999999999,-123.087 103.118,-115.807 C 103.118,-115.807 94.85300000000001,-125.65899999999999 86.149,-125.279 C 77.451,-124.899 72.113,-113.738 73.354,-101.608 C 73.354,-101.608 66.234,-100.91300000000001 63.027,-91.299 C 61.635,-87.12 62.546,-80.759 64.06,-73.479 Z" style="fill-opacity:1.0;fill:rgb(252, 227, 199)"/>
      </g>
      <g id="g_21" style="fill-opacity:1.0;fill:rgb(220, 176, 127)">
         <path d="M 72.743,-42.351 C 74.16499999999999,-36.672 80.03,-19.547 80.985,-14.74 C 85.882,9.905 86.78099999999999,13.295999999999996 91.955,44.096 C 97.127,74.882 159.791,57.906 157.821,30.381 C 157.821,30.381 159.135,13.373 156.339,-15.374 C 155.901,-19.880000000000003 155.261,-24.499000000000002 154.428,-29.076 C 154.428,-29.076 168.727,30.165 126.056,33.44 C 92.555,36.010999999999996 90.97,27.662000000000006 72.743,-42.351 Z" style="fill-opacity:1.0;fill:rgb(220, 176, 127)"/>
      </g>
      <g id="g_22" style="stroke:rgb(148, 96, 55);stroke-opacity:1.0;stroke-width:8.0;stroke-linecap:round;stroke-linejoin:round">
         <path d="M 158.002,30.408 C 158.002,30.408 160.416,13.276000000000002 156.721,-15.376 C 154.805,-30.215 141.81599999999997,-71.75800000000001 138.158,-76.84 C 138.158,-76.84 123.54,-113.126 110.861,-121.787 C 101.324,-128.30100000000002 98.04,-121.916 102.888,-115.812 C 102.888,-115.812 94.618,-125.65 85.917,-125.277 C 77.21600000000001,-124.904 71.87700000000001,-113.737 73.12,-101.612 C 73.12,-101.612 65.967,-101.375 62.796,-91.3 C 58.814,-78.628 76.0,-35.085 80.13,-14.627 C 85.101,9.999 85.878,13.777000000000001 91.476,44.341 C 97.074,74.905 159.678,57.891000000000005 158.002,30.408 Z" style="stroke:rgb(148, 96, 55);stroke-opacity:1.0;stroke-width:8.0;stroke-linecap:round;stroke-linejoin:round"/>
      </g>
      <g id="g_23" style="stroke:rgb(148, 96, 55);stroke-opacity:1.0;stroke-width:8.0;stroke-linecap:round;stroke-linejoin:round">
         <path d="M 102.888,-115.812 C 102.888,-115.812 123.273,-86.005 129.737,-55.865 " style="stroke:rgb(148, 96, 55);stroke-opacity:1.0;stroke-width:8.0;stroke-linecap:round;stroke-linejoin:round"/>
      </g>
      <g id="g_24" style="stroke:rgb(148, 96, 55);stroke-opacity:1.0;stroke-width:8.0;stroke-linecap:round;stroke-linejoin:round">
         <path d="M 138.271,-76.891 C 138.271,-76.891 148.92000000000002,-54.895 151.566,-37.773 " style="stroke:rgb(148, 96, 55);stroke-opacity:1.0;stroke-width:8.0;stroke-linecap:round;stroke-linejoin:round"/>
      </g>
      <g id="g_25" style="stroke:rgb(148, 96, 55);stroke-opacity:1.0;stroke-width:8.0;stroke-linecap:round;stroke-linejoin:round">
         <path d="M 73.894,-101.727 C 73.894,-101.727 90.658,-109.625 107.348,-44.337 " style="stroke:rgb(148, 96, 55);stroke-opacity:1.0;stroke-width:8.0;stroke-linecap:round;stroke-linejoin:round"/>
      </g>
      <g id="g_26" style="">
         <g id="g_27" style="fill-opacity:1.0;fill:rgb(158, 118, 61)">
            <path d="M 179.125,164.75 C 179.125,164.75 157.75099999999998,83.001 156.688,64.313 C 155.625,45.625 154.313,35.563 154.313,35.563 C 154.313,35.563 156.125,41.75 156.125,41.75 C 156.125,41.75 157.5,35 157.5,35 C 156.937,33.187 155.063,29.812 153.75,31.25 C 153.75,31.25 150,36.625 150,36.625 C 150,36.625 147.938,26.938 147.938,26.938 C 146.688,25.375 144.12599999999998,25.812 143.563,27.75 C 143.563,27.75 138.313,45 138.313,45 C 138.313,45 129.438,29.438 129.438,29.438 C 127.81299999999999,28.813 126,30.0 126,31.75 C 126,31.75 108,54 108,54 C 108,54 93.75,42.25 93.75,42.25 C 93.75,42.25 95.125,66.437 98.625,84.625 C 102.125,102.813 105.75,185.75 105.75,185.75 C 105.75,185.75 97.062,186.50099999999998 116.75,186.438 C 151.063,186.375 179.125,164.75 179.125,164.75 Z" style="fill-opacity:1.0;fill:rgb(158, 118, 61)"/>
         </g>
         <g id="g_28" style="fill-opacity:1.0;fill:rgb(188, 146, 89)">
            <path d="M 121.688,186.5 C 121.688,186.5 115.687,188.313 133.875,185.875 C 155.375,183.0 179.125,164.75 179.125,164.75 C 179.125,164.75 168.188,122.313 159.875,83.125 C 159.875,83.125 157.875,87.125 157.875,87.125 C 155.125,72.5 137.438,57.25 125.688,70.563 C 117.438,79.938 120.625,104.37499999999999 124.75,138.063 C 128.75,170.37599999999998 121.688,186.5 121.688,186.5 Z" style="fill-opacity:1.0;fill:rgb(188, 146, 89)"/>
         </g>
         <g id="g_29" style="stroke:rgb(94, 66, 31);stroke-opacity:1.0;stroke-width:8.0;stroke-linecap:round;stroke-linejoin:round">
            <path d="M 177.688,163.125 C 177.688,163.125 157.75099999999998,83.001 156.688,64.313 C 156.063,52.938 154.875,42.813 157.625,37 " style="stroke:rgb(94, 66, 31);stroke-opacity:1.0;stroke-width:8.0;stroke-linecap:round;stroke-linejoin:round"/>
         </g>
         <g id="g_30" style="stroke:rgb(94, 66, 31);stroke-opacity:1.0;stroke-width:8.0;stroke-linecap:round;stroke-linejoin:round">
            <path d="M 92.5,46.438 C 92.5,46.438 95.687,67.937 98.625,84.625 C 101.813,102.875 105,182.875 105,182.875 " style="stroke:rgb(94, 66, 31);stroke-opacity:1.0;stroke-width:8.0;stroke-linecap:round;stroke-linejoin:round"/>
         </g>
      </g>
   </g>
   <g inkscape:groupmode="layer" id="g_31" opacity="1" transform="translate(256, 256) scale(0.95, 0.95)" inkscape:label="NullLayer">
      <g inkscape:groupmode="layer" id="g_32" inkscape:label="ShapeLayer" style="">
         <g inkscape:groupmode="layer" id="g_33" inkscape:label="ShapeLayer" style="">
            <g id="g_34" style="fill-opacity:1.0;fill:rgb(158, 118, 61)">
               <path d="M 125.73,-143.021 C 145.495,-144.326 174.75,-145.446 196.922,-118.078 C 221.394,-87.87 221.865,-28.439 174.577,10.795 C 125.049,51.887 70.647,-139.38299999999998 125.73,-143.021 Z" style="fill-opacity:1.0;fill:rgb(158, 118, 61)"/>
            </g>
            <g id="g_35" style="fill-opacity:1.0;fill:rgb(237, 172, 170)">
               <path d="M 136.643,-115.866 C 136.643,-115.866 165.743,-124.371 182.613,-95.857 C 196.36,-72.622 187.914,-33.548 166.291,-15.922 C 140.575,5.039999999999999 118.91499999999999,-117.815 136.643,-115.866 Z" style="fill-opacity:1.0;fill:rgb(237, 172, 170)"/>
            </g>
            <g id="g_36" style="stroke:rgb(188, 146, 89);stroke-opacity:1.0;stroke-width:10.0;stroke-linecap:round;stroke-linejoin:round">
               <path d="M 203.905,-80.406 C 203.905,-80.406 199.07100000000003,-120.152 162.752,-130.334 " style="stroke:rgb(188, 146, 89);stroke-opacity:1.0;stroke-width:10.0;stroke-linecap:round;stroke-linejoin:round"/>
            </g>
            <g id="g_37" style="stroke:rgb(94, 66, 31);stroke-opacity:1.0;stroke-width:8.0;stroke-miterlimit:10.0;stroke-linecap:butt;stroke-linejoin:miter">
               <path d="M 125.73,-143.021 C 145.495,-144.326 174.75,-145.446 196.922,-118.078 C 221.394,-87.87 221.865,-28.439 174.577,10.795 C 125.049,51.887 70.647,-139.38299999999998 125.73,-143.021 Z" style="stroke:rgb(94, 66, 31);stroke-opacity:1.0;stroke-width:8.0;stroke-miterlimit:10.0;stroke-linecap:butt;stroke-linejoin:miter"/>
            </g>
            <g id="g_38" style="fill-opacity:1.0;fill:rgb(219, 152, 151)">
               <path d="M 130.917,-89.291 C 173.553,-111.448 189.319,-61.424 189.319,-61.424 C 189.32899999999998,-61.424 189.33,-61.434 189.34,-61.434 C 190.623,-73.862 188.733,-86.219 183.034,-95.859 C 166.17,-124.37299999999999 137.07,-115.865 137.07,-115.865 C 131.523,-116.47099999999999 129.836,-104.88199999999999 130.917,-89.291 Z" style="fill-opacity:1.0;fill:rgb(219, 152, 151)"/>
            </g>
         </g>
         <g inkscape:groupmode="layer" id="g_39" inkscape:label="ShapeLayer" style="">
            <g id="g_40" style="fill-opacity:1.0;fill:rgb(158, 118, 61);stroke:rgb(94, 66, 31);stroke-opacity:1.0;stroke-width:8.0;stroke-miterlimit:10.0;stroke-linecap:butt;stroke-linejoin:miter">
               <path d="M -115.798,-143.021 C -135.563,-144.326 -164.818,-145.446 -186.99,-118.078 C -211.46200000000002,-87.87 -211.933,-28.439 -164.645,10.795 C -115.11700000000002,51.887 -60.715,-139.38299999999998 -115.798,-143.021 Z" style="fill-opacity:1.0;fill:rgb(158, 118, 61);stroke:rgb(94, 66, 31);stroke-opacity:1.0;stroke-width:8.0;stroke-miterlimit:10.0;stroke-linecap:butt;stroke-linejoin:miter"/>
            </g>
            <g id="g_41" style="stroke:rgb(188, 146, 89);stroke-opacity:1.0;stroke-width:10.0;stroke-linecap:round;stroke-linejoin:round">
               <path d="M -194.126,-81.406 C -194.126,-81.406 -189.291,-121.152 -152.972,-131.334 " style="stroke:rgb(188, 146, 89);stroke-opacity:1.0;stroke-width:10.0;stroke-linecap:round;stroke-linejoin:round"/>
            </g>
            <g id="g_42" style="stroke:rgb(94, 66, 31);stroke-opacity:1.0;stroke-width:8.0;stroke-miterlimit:10.0;stroke-linecap:butt;stroke-linejoin:miter">
               <path d="M -115.798,-143.021 C -135.563,-144.326 -164.818,-145.446 -186.99,-118.078 C -211.46200000000002,-87.87 -211.933,-28.439 -164.645,10.795 C -115.11700000000002,51.887 -60.715,-139.38299999999998 -115.798,-143.021 Z" style="stroke:rgb(94, 66, 31);stroke-opacity:1.0;stroke-width:8.0;stroke-miterlimit:10.0;stroke-linecap:butt;stroke-linejoin:miter"/>
            </g>
            <g id="g_43" style="fill-opacity:1.0;fill:rgb(237, 172, 170)">
               <path d="M -126.711,-115.866 C -126.711,-115.866 -155.81199999999998,-124.371 -172.682,-95.857 C -186.42899999999997,-72.622 -177.983,-33.548 -156.36,-15.922 C -130.644,5.039999999999999 -108.983,-117.815 -126.711,-115.866 Z" style="fill-opacity:1.0;fill:rgb(237, 172, 170)"/>
            </g>
            <g id="g_44" style="fill-opacity:1.0;fill:rgb(219, 152, 151)">
               <path d="M -120.56,-89.291 C -163.196,-111.448 -178.963,-61.424 -178.963,-61.424 C -178.97299999999998,-61.424 -178.973,-61.434 -178.983,-61.434 C -180.266,-73.862 -178.377,-86.219 -172.678,-95.859 C -155.814,-124.37299999999999 -126.714,-115.865 -126.714,-115.865 C -121.167,-116.47099999999999 -119.479,-104.88199999999999 -120.56,-89.291 Z" style="fill-opacity:1.0;fill:rgb(219, 152, 151)"/>
            </g>
         </g>
         <g id="g_45" style="fill-opacity:1.0;fill:rgb(158, 118, 61)">
            <path d="M 169.587,-20.913 C 147.588,-64.908 159.229,-66.928 146.026,-110.813 C 130.821,-161.352 82.551,-207.093 5.303,-207.093 C -72.777,-207.093 -120.21499999999999,-161.352 -135.42,-110.813 C -148.623,-66.928 -136.982,-64.908 -158.981,-20.913 C -183.135,27.392 -193.335,159.087 5.303,159.087 C 203.941,159.087 193.74099999999999,27.392 169.587,-20.913 Z" style="fill-opacity:1.0;fill:rgb(158, 118, 61)"/>
         </g>
         <g id="g_46" style="fill-opacity:1.0;fill:rgb(188, 146, 89)">
            <path d="M 156.11,-21.166 C 135.91600000000003,-61.551 146.602,-63.407 134.482,-103.692 C 120.525,-150.08499999999998 76.214,-192.073 5.303,-192.073 C -66.372,-192.073 -109.918,-150.08499999999998 -123.876,-103.692 C -135.996,-63.407 -125.30999999999999,-61.551 -145.504,-21.166 C -167.677,23.176 -177.04,144.067 5.303,144.067 C 187.646,144.067 178.28300000000002,23.176 156.11,-21.166 Z" style="fill-opacity:1.0;fill:rgb(188, 146, 89)"/>
         </g>
         <g id="g_47" style="fill-opacity:1.0;fill:rgb(199, 159, 107)">
            <path d="M 96.859,-148.606 C 96.859,-125.07 56.144,-105.99 5.921,-105.99 C -44.302,-105.99 -85.016,-125.07 -85.016,-148.606 C -85.016,-172.142 -44.302,-191.222 5.921,-191.222 C 56.144,-191.222 96.859,-172.142 96.859,-148.606 Z" style="fill-opacity:1.0;fill:rgb(199, 159, 107)"/>
         </g>
         <g id="g_48" style="">
            <g id="g_49" style="stroke:rgb(255, 255, 255);stroke-opacity:1.0;stroke-width:6.0;stroke-linecap:round;stroke-linejoin:round">
               <path d="M 62.717,-181.024 C 64.228,-180.53 65.795,-179.99599999999998 67.407,-179.42 " style="stroke:rgb(255, 255, 255);stroke-opacity:1.0;stroke-width:6.0;stroke-linecap:round;stroke-linejoin:round"/>
            </g>
            <g id="g_50" style="stroke:rgb(255, 255, 255);stroke-opacity:1.0;stroke-width:6.0;stroke-linecap:round;stroke-linejoin:round">
               <path d="M 41.579,-186.44 C 41.579,-186.44 46.445,-185.681 54.078,-183.608 " style="stroke:rgb(255, 255, 255);stroke-opacity:1.0;stroke-width:6.0;stroke-linecap:round;stroke-linejoin:round"/>
            </g>
         </g>
         <g id="g_51" style="stroke:rgb(94, 66, 31);stroke-opacity:1.0;stroke-width:8.0;stroke-miterlimit:10.0;stroke-linecap:butt;stroke-linejoin:miter">
            <path d="M 169.587,-20.913 C 147.588,-64.908 159.229,-66.928 146.026,-110.813 C 130.821,-161.352 82.551,-207.093 5.303,-207.093 C -72.777,-207.093 -120.21499999999999,-161.352 -135.42,-110.813 C -148.623,-66.928 -136.982,-64.908 -158.981,-20.913 C -183.135,27.392 -193.335,159.087 5.303,159.087 C 203.941,159.087 193.74099999999999,27.392 169.587,-20.913 Z" style="stroke:rgb(94, 66, 31);stroke-opacity:1.0;stroke-width:8.0;stroke-miterlimit:10.0;stroke-linecap:butt;stroke-linejoin:miter"/>
         </g>
         <g id="g_52" style="fill-opacity:1.0;fill:rgb(240, 216, 179)">
            <path d="M 88.579,-75.949 C 49.77799999999999,-85.355 22.136,-59.29 10.891,-45.909 C 7.968999999999999,-42.432 2.637,-42.432 -0.285,-45.909 C -11.53,-59.29 -39.173,-85.355 -77.973,-75.949 C -129.418,-63.477 -137.213,-18.787 -132.017,4.597 C -127.163,26.438000000000002 -109.163,47.373 -80.556,57.662 C -77.104,58.903999999999996 -75.09,62.488 -75.875,66.071 C -79.345,81.916 -86.275,123.42000000000002 -70.075,146.877 C -67.263,150.949 -62.845,153.642 -57.943,154.316 C -50.561,155.331 -37.786,158.09300000000002 -27.048,165.544 C -10.072999999999997,177.323 5.303,176.601 5.303,176.601 C 5.303,176.601 20.679000000000002,177.323 37.654,165.544 C 48.391000000000005,158.09300000000002 61.166000000000004,155.331 68.548,154.316 C 73.45,153.642 77.86800000000001,150.949 80.68,146.877 C 96.88000000000001,123.42000000000002 89.951,81.916 86.481,66.071 C 85.696,62.488 87.71000000000001,58.903999999999996 91.162,57.662 C 119.769,47.373 137.76999999999998,26.438000000000002 142.623,4.597 C 147.82,-18.787 140.024,-63.477 88.579,-75.949 Z" style="fill-opacity:1.0;fill:rgb(240, 216, 179)"/>
         </g>
         <g id="g_53" style="fill-opacity:1.0;fill:rgb(219, 191, 151)">
            <path d="M 134.093,-35.971 C 136.63899999999998,-29.917999999999996 134.20499999999998,-22.882 128.458,-19.704 C 88.758,2.25 37.067,-7.056 14.574,-11.647 C 7.8999999999999995,-13.009 1.0099999999999998,-12.951 -5.621,-11.396 C -61.748000000000005,1.7669999999999995 -99.51299999999999,-12.49 -116.496,-21.256 C -122.74,-24.479 -125.336,-32.126 -122.192,-38.41 C -116.70599999999999,-49.375 -105.011,-65.379 -76.315,-72.759 C -37.650999999999996,-82.703 -11.532,-59.293 -0.282,-45.913 C 2.638,-42.433 7.9670000000000005,-42.433 10.887,-45.913 C 22.137,-59.293 48.991,-81.64500000000001 87.791,-72.245 C 114.577,-65.74600000000001 127.398,-51.891999999999996 134.093,-35.971 Z" style="fill-opacity:1.0;fill:rgb(219, 191, 151)"/>
         </g>
         <g id="g_54" style="stroke:rgb(240, 216, 179);stroke-opacity:1.0;stroke-width:8.0;stroke-miterlimit:10.0;stroke-linecap:butt;stroke-linejoin:miter">
            <path d="M 88.579,-75.949 C 49.77799999999999,-85.355 22.136,-59.29 10.891,-45.909 C 7.968999999999999,-42.432 2.637,-42.432 -0.285,-45.909 C -11.53,-59.29 -39.173,-85.355 -77.973,-75.949 C -129.418,-63.477 -137.213,-18.787 -132.017,4.597 C -127.163,26.438000000000002 -109.163,47.373 -80.556,57.662 C -77.104,58.903999999999996 -75.09,62.488 -75.875,66.071 C -79.345,81.916 -86.275,123.42000000000002 -70.075,146.877 C -67.263,150.949 -62.845,153.642 -57.943,154.316 C -50.561,155.331 -37.786,158.09300000000002 -27.048,165.544 C -10.072999999999997,177.323 5.303,176.601 5.303,176.601 C 5.303,176.601 20.679000000000002,177.323 37.654,165.544 C 48.391000000000005,158.09300000000002 61.166000000000004,154.331 68.548,153.316 C 73.45,152.642 77.86800000000001,150.949 80.68,146.877 C 96.88000000000001,123.42000000000002 89.951,81.916 86.481,66.071 C 85.696,62.488 87.71000000000001,58.903999999999996 91.162,57.662 C 119.769,47.373 137.76999999999998,26.438000000000002 142.623,4.597 C 147.82,-18.787 140.024,-63.477 88.579,-75.949 Z" style="stroke:rgb(240, 216, 179);stroke-opacity:1.0;stroke-width:8.0;stroke-miterlimit:10.0;stroke-linecap:butt;stroke-linejoin:miter"/>
         </g>
         <g id="g_55" opacity="0.11" style="fill-opacity:1.0;fill:rgb(158, 118, 61)">
            <path d="M 91.856,131.627 C 90.18499999999999,138.227 86.60900000000001,145.514 83.799,149.584 C 80.989,153.654 73.44900000000001,153.64700000000002 68.549,154.317 C 61.169000000000004,155.327 48.389,158.097 37.649,165.547 C 20.679000000000002,177.327 5.299,176.597 5.299,176.597 C 5.299,176.597 -10.070999999999998,177.327 -27.051,165.547 C -37.781,158.097 -50.561,155.327 -57.941,154.317 C -62.841,153.64700000000002 -69.05,153.696 -72.457,150.111 C -76.29799999999999,146.07 -79.631,136.76999999999998 -81.201,131.67 C -68.89099999999999,135.07999999999998 -31.521,145.767 -17.101,154.037 C 0.8290000000000006,164.327 20.549,159.697 28.949,154.037 C 36.839,148.717 67.006,135.637 91.856,131.627 Z" style="fill-opacity:1.0;fill:rgb(158, 118, 61)"/>
         </g>
         <g id="g_56" style="stroke:rgb(178, 149, 114);stroke-opacity:1.0;stroke-width:8.0;stroke-linecap:round;stroke-linejoin:round">
            <path d="M -70.986,150.908 C -53.775000000000006,156.034 -38.839,158.784 -27.847,165.744 C -9.237000000000002,177.526 5.303,176.601 5.303,176.601 C 5.303,176.601 20.678000000000004,177.323 37.654,165.544 C 47.836000000000006,158.479 62.656000000000006,155.688 81.313,150.908 " style="stroke:rgb(178, 149, 114);stroke-opacity:1.0;stroke-width:8.0;stroke-linecap:round;stroke-linejoin:round"/>
         </g>
         <g inkscape:groupmode="layer" id="g_57" opacity="1" inkscape:label="NullLayer">
            <g inkscape:groupmode="layer" id="g_58" inkscape:label="ShapeLayer" style="">
               <g id="g_59" style="">
                  <g id="g_60" style="fill-opacity:1.0;fill:rgb(219, 191, 151)">
                     <path d="M 35.881,85.862 C 34.406,85.213 29.804000000000002,85.359 23.167,84.726 C 20.483,84.47 13.009,83.945 5.922,83.945 C -1.165,83.945 -8.871,84.377 -11.558,84.606 C -18.201,85.17299999999999 -22.919999999999998,85.213 -24.395,85.862 C -26.395,86.74199999999999 -24.777,91.434 -22.277,95.229 C -18.733,100.608 -5.671999999999999,108.802 5.746,108.802 C 17.164,108.802 30.224999999999998,100.608 33.769,95.229 C 36.269,91.434 37.881,86.74199999999999 35.881,85.862 Z" style="fill-opacity:1.0;fill:rgb(219, 191, 151)"/>
                  </g>
               </g>
               <g id="g_61" style="fill-opacity:1.0;fill:rgb(255, 244, 233)">
                  <path d="M 34.242,89.001 C 32.593999999999994,88.787 29.534999999999997,90.768 22.653,90.081 C 19.869999999999997,89.803 13.282,89.286 5.925,89.286 C -1.4320000000000004,89.286 -8.303,89.715 -11.089,89.965 C -17.978,90.583 -21.151999999999997,88.537 -22.749,89.001 C -25.796999999999997,89.88600000000001 -24.418,97.15299999999999 -21.823,100.948 C -18.145,106.327 -6.119000000000001,115.682 5.733,115.682 C 17.585,115.682 29.875000000000004,106.589 33.554,101.21 C 36.149,97.41499999999999 37.43,89.414 34.242,89.001 Z" style="fill-opacity:1.0;fill:rgb(255, 244, 233)"/>
               </g>
               <g id="g_62" style="fill-opacity:1.0;fill:rgb(63, 10, 36)">
                  <path d="M 34.242,89.001 C 32.766999999999996,88.352 29.136,88.426 22.499,87.793 C 19.814999999999998,87.537 13.012,87.084 5.925,87.084 C -1.162,87.084 -8.226,87.45 -10.913,87.679 C -17.556,88.246 -21.273999999999997,88.352 -22.749,89.001 C -24.749,89.881 -23.134,93.636 -20.634,97.431 C -17.09,102.81 -5.671999999999999,111.004 5.746,111.004 C 17.164,111.004 28.583000000000002,102.81 32.127,97.431 C 34.627,93.636 36.242,89.881 34.242,89.001 Z" style="fill-opacity:1.0;fill:rgb(63, 10, 36)"/>
               </g>
               <g id="g_63" style="fill-opacity:1.0;fill:rgb(178, 70, 96)">
                  <path d="M 23.022,105.559 C 18.095,108.61 11.917,111.007 5.744,111.007 C -0.6030000000000006,111.007 -6.949000000000001,108.287 -11.941,105.116 C -12.177000000000001,105.116 -9.552,106.691 -8.151,106.691 C -1.7469999999999999,106.691 5.555,107.59 5.555,107.59 C 5.555,107.59 13.255000000000003,105.813 19.484,106.941 C 20.823,107.184 23.697999999999997,105.559 23.022,105.559 Z" style="fill-opacity:1.0;fill:rgb(178, 70, 96)"/>
               </g>
               <g id="g_64" style="fill-opacity:1.0;fill:rgb(4, 0, 1)">
                  <path d="M 34.087,94.056 C 34.465,92.652 34.333999999999996,91.58800000000001 33.413,91.171 C 31.977999999999998,90.521 28.005000000000003,90.397 21.553,89.807 C 18.948,89.569 12.804,89.257 5.926,89.257 C -0.9580000000000002,89.257 -7.378,89.49000000000001 -9.991,89.703 C -16.442999999999998,90.22800000000001 -20.485,90.519 -21.919,91.171 C -22.839000000000002,91.58900000000001 -22.97,92.647 -22.598,94.051 C -23.785999999999998,91.612 -24.142000000000003,89.614 -22.751,89.003 C -21.272000000000002,88.353 -17.555999999999997,88.245 -10.911,87.679 C -8.222999999999999,87.45 -1.1600000000000001,87.083 5.926,87.083 C 13.012,87.083 19.813000000000002,87.538 22.498,87.794 C 29.137,88.426 32.765,88.358 34.24,89.003 C 35.636,89.614 35.275000000000006,91.61699999999999 34.087,94.056 Z" style="fill-opacity:1.0;fill:rgb(4, 0, 1)"/>
               </g>
            </g>
            <g inkscape:groupmode="layer" id="g_65" inkscape:label="ShapeLayer" style="">
               <g id="g_66" style="fill-opacity:1.0;fill:rgb(219, 191, 151)">
                  <path d="M 23.934,29.849 C 20.306,29.755 14.897,31.463 11.849,32.814 C 8.696,34.212 3.032,34.212 -0.121,32.814 C -3.169,31.463 -8.578,29.755 -12.206,29.849 C -23.493000000000002,30.141000000000002 -28.73,36.575 -28.625,47.042 C -28.546,54.944 -23.965,70.656 5.864,70.656 C 35.396,70.656 39.908,55.202 40.353,47.042 C 40.922000000000004,36.59 35.221000000000004,30.141000000000002 23.934,29.849 Z" style="fill-opacity:1.0;fill:rgb(219, 191, 151)"/>
               </g>
               <g id="g_67" style="">
                  <g id="g_68" style="fill-opacity:1.0;fill:rgb(240, 216, 180)">
                     <path d="M -0.269,46.986 C 2.2399999999999998,51.9 0.22299999999999986,57.953 -3.725,59.968 C -7.673,61.983000000000004 -12.515,59.79 -15.327,55.043 C -19.552,47.909 -17.766,42.214 -13.818,40.199 C -9.87,38.184 -4.199,39.287 -0.269,46.986 Z" style="fill-opacity:1.0;fill:rgb(240, 216, 180)"/>
                  </g>
                  <g id="g_69" style="fill-opacity:1.0;fill:rgb(103, 68, 48)">
                     <path d="M -1.484,44.758 C 1.025,49.672000000000004 -0.14100000000000046,55.29 -4.089,57.305 C -8.037,59.32 -13.27,56.97 -15.779,52.056 C -18.288,47.141999999999996 -17.122,41.524 -13.174,39.509 C -9.225999999999999,37.494 -3.993,39.844 -1.484,44.758 Z" style="fill-opacity:1.0;fill:rgb(103, 68, 48)"/>
                  </g>
                  <g id="g_70" style="fill-opacity:1.0;fill:rgb(54, 22, 9)">
                     <path d="M -1.485,44.758 C -1.016,45.677 -0.67,46.628 -0.457,47.57 C -2.976,42.72 -8.538,41.297 -12.282,43.208 C -16.026,45.119 -16.556,49.674 -14.08,54.567 C -14.723,53.833 -15.302,52.992 -15.78,52.056 C -18.291,47.138 -17.125,41.522999999999996 -13.177,39.507 C -9.229,37.491 -3.9960000000000004,39.84 -1.485,44.758 Z" style="fill-opacity:1.0;fill:rgb(54, 22, 9)"/>
                  </g>
               </g>
               <g id="g_71" style="">
                  <g id="g_72" style="fill-opacity:1.0;fill:rgb(240, 216, 180)">
                     <path d="M 12.111,46.986 C 9.602,51.9 11.619,57.953 15.567,59.968 C 19.515,61.983000000000004 24.357,59.79 27.169,55.043 C 31.394,47.909 29.609,42.214 25.661,40.199 C 21.713,38.184 16.041,39.287 12.111,46.986 Z" style="fill-opacity:1.0;fill:rgb(240, 216, 180)"/>
                  </g>
                  <g id="g_73" style="fill-opacity:1.0;fill:rgb(103, 68, 48)">
                     <path d="M 13.326,44.758 C 10.817,49.672000000000004 11.982999999999999,55.29 15.931,57.305 C 19.878999999999998,59.32 25.112,56.97 27.621,52.056 C 30.13,47.141999999999996 28.964,41.524 25.016,39.509 C 21.067999999999998,37.494 15.835,39.844 13.326,44.758 Z" style="fill-opacity:1.0;fill:rgb(103, 68, 48)"/>
                  </g>
                  <g id="g_74" style="fill-opacity:1.0;fill:rgb(54, 22, 9)">
                     <path d="M 13.327,44.758 C 12.858,45.677 12.513,46.628 12.3,47.57 C 14.819,42.72 20.381,41.297 24.125,43.208 C 27.869,45.119 28.398,49.674 25.922,54.567 C 26.565,53.833 27.145,52.992 27.623,52.056 C 30.134,47.138 28.967,41.522999999999996 25.019,39.507 C 21.070999999999998,37.491 15.838000000000001,39.84 13.327,44.758 Z" style="fill-opacity:1.0;fill:rgb(54, 22, 9)"/>
                  </g>
               </g>
            </g>
            <g inkscape:groupmode="layer" id="g_75" transform="translate(15, 0.0) scale(-1.0, 1.0)" inkscape:label="ShapeLayer" style="">
               <g id="g_76" style="fill-opacity:1.0;fill:rgb(219, 191, 151)">
                  <path d="M -38.523,9.822 C -38.523,29.337999999999997 -50.39,45.158 -63.783,45.158 C -77.176,45.158 -89.044,29.337999999999997 -89.044,9.822 C -89.044,-9.693999999999999 -77.176,-25.514 -63.783,-25.514 C -50.39,-25.514 -38.523,-9.693999999999999 -38.523,9.822 Z" style="fill-opacity:1.0;fill:rgb(219, 191, 151)"/>
               </g>
               <g id="g_77" style="">
                  <g id="g_78" style="fill-opacity:1.0;fill:rgb(17, 17, 17)">
                     <path d="M -39.533,4.77 C -39.533,24.285999999999998 -50.39,40.106 -63.783,40.106 C -77.176,40.106 -88.033,24.285999999999998 -88.033,4.77 C -88.033,-14.745999999999999 -77.176,-30.566 -63.783,-30.566 C -50.39,-30.566 -39.533,-14.745999999999999 -39.533,4.77 Z" style="fill-opacity:1.0;fill:rgb(17, 17, 17)"/>
                  </g>
                  <g id="g_79" style="fill-opacity:1.0;fill:rgb(245, 245, 245)">
                     <path d="M -50.461,-12.676 C -50.461,-6.9750000000000005 -56.425000000000004,-11.535 -63.783,-11.535 C -71.141,-11.535 -77.106,-6.848 -77.106,-12.676 C -77.106,-16.306 -71.141,-23.45 -63.783,-23.45 C -56.425000000000004,-23.45 -50.461,-16.305 -50.461,-12.676 Z" style="fill-opacity:1.0;fill:rgb(245, 245, 245)"/>
                  </g>
                  <g id="g_80" style="fill-opacity:1.0;fill:rgb(72, 73, 73)">
                     <path d="M -46.701,12.524 C -46.701,19.602999999999998 -53.797,33.272 -63.783,33.272 C -73.769,33.272 -80.865,19.602999999999998 -80.865,12.524 C -80.865,1.1669999999999998 -73.769,11.875 -63.783,11.875 C -53.797,11.875 -46.701,0.6529999999999987 -46.701,12.524 Z" style="fill-opacity:1.0;fill:rgb(72, 73, 73)"/>
                  </g>
               </g>
            </g>
            <g inkscape:groupmode="layer" id="g_81" inkscape:label="ShapeLayer" style="">
               <g id="g_82" style="fill-opacity:1.0;fill:rgb(219, 191, 151)">
                  <path d="M -38.523,9.822 C -38.523,29.337999999999997 -50.39,45.158 -63.783,45.158 C -77.176,45.158 -89.044,29.337999999999997 -89.044,9.822 C -89.044,-9.693999999999999 -77.176,-25.514 -63.783,-25.514 C -50.39,-25.514 -38.523,-9.693999999999999 -38.523,9.822 Z" style="fill-opacity:1.0;fill:rgb(219, 191, 151)"/>
               </g>
               <g id="g_83" style="">
                  <g id="g_84" style="fill-opacity:1.0;fill:rgb(17, 17, 17)">
                     <path d="M -39.533,4.77 C -39.533,24.285999999999998 -50.39,40.106 -63.783,40.106 C -77.176,40.106 -88.033,24.285999999999998 -88.033,4.77 C -88.033,-14.745999999999999 -77.176,-30.566 -63.783,-30.566 C -50.39,-30.566 -39.533,-14.745999999999999 -39.533,4.77 Z" style="fill-opacity:1.0;fill:rgb(17, 17, 17)"/>
                  </g>
                  <g id="g_85" style="fill-opacity:1.0;fill:rgb(245, 245, 245)">
                     <path d="M -50.461,-12.676 C -50.461,-6.9750000000000005 -56.425000000000004,-11.535 -63.783,-11.535 C -71.141,-11.535 -77.106,-6.848 -77.106,-12.676 C -77.106,-16.306 -71.141,-23.45 -63.783,-23.45 C -56.425000000000004,-23.45 -50.461,-16.305 -50.461,-12.676 Z" style="fill-opacity:1.0;fill:rgb(245, 245, 245)"/>
                  </g>
                  <g id="g_86" style="fill-opacity:1.0;fill:rgb(72, 73, 73)">
                     <path d="M -46.701,12.524 C -46.701,19.602999999999998 -53.797,33.272 -63.783,33.272 C -73.769,33.272 -80.865,19.602999999999998 -80.865,12.524 C -80.865,1.1669999999999998 -73.769,11.875 -63.783,11.875 C -53.797,11.875 -46.701,0.6529999999999987 -46.701,12.524 Z" style="fill-opacity:1.0;fill:rgb(72, 73, 73)"/>
                  </g>
               </g>
            </g>
         </g>
      </g>
   </g>
</svg>
