<svg xmlns="http://www.w3.org/2000/svg" height="512" width="512" fill="none"><g><g><path d="M375 120c19-1 47-2 68 24 23 29 24 85-21 122-47 39-99-142-47-146z" fill="#9e763d"/><path d="M386 146s27-8 43 19c14 22 6 59-15 76-24 20-45-97-28-95z" fill="#edacaa"/><path d="M450 180s-5-38-39-48" stroke="#bc9259" stroke-width="9.5" stroke-linecap="round" stroke-linejoin="round"/><path d="M375 120c19-1 47-2 68 24 23 29 24 85-21 122-47 39-99-142-47-146z" stroke="#5e421f" stroke-width="7.6" stroke-miterlimit="10"/><path d="M380 171c41-21 56 27 56 27 1-12-1-24-6-33-16-27-44-19-44-19-5-1-7 10-6 25z" fill="#db9897"/></g><g><path d="M146 120c-19-1-47-2-68 24-23 29-23 85 22 122 47 39 98-142 46-146z" fill="#9e763d" stroke="#5e421f" stroke-width="7.6" stroke-miterlimit="10"/><path d="M72 179s4-38 39-48" stroke="#bc9259" stroke-width="9.5" stroke-linecap="round" stroke-linejoin="round"/><path d="M146 120c-19-1-47-2-68 24-23 29-23 85 22 122 47 39 98-142 46-146z" stroke="#5e421f" stroke-width="7.6" stroke-miterlimit="10"/><path d="M136 146s-28-8-44 19c-13 22-5 59 15 76 25 20 45-97 29-95z" fill="#edacaa"/><path d="M141 171c-40-21-55 27-55 27-1-12 1-24 6-33 16-27 44-19 44-19 5-1 6 10 5 25z" fill="#db9897"/></g><path d="M417 236c-21-42-10-44-22-85-15-48-61-92-134-92-74 0-119 44-134 92-12 41-1 43-22 85-23 46-33 171 156 171s179-125 156-171z" fill="#9e763d"/><path d="M404 236c-19-38-9-40-20-79-14-44-56-83-123-83-68 0-109 39-123 83-11 39-1 41-20 79-21 42-30 157 143 157s164-115 143-157z" fill="#bc9259"/><path d="M348 115c0 22-39 40-86 40-48 0-87-18-87-40 0-23 39-41 87-41 47 0 86 18 86 41z" fill="#c79f6b"/><g stroke="#fff" stroke-width="6" stroke-linecap="round" stroke-linejoin="round"><path d="M316 84l4 2M296 79l11 3" stroke-width="5.699999999999999"/></g><path d="M417 236c-21-42-10-44-22-85-15-48-61-92-134-92-74 0-119 44-134 92-12 41-1 43-22 85-23 46-33 171 156 171s179-125 156-171z" stroke="#5e421f" stroke-width="7.6" stroke-miterlimit="10"/><path d="M340 184c-37-9-63 16-74 28-2 4-7 4-10 0-11-12-37-37-74-28a64 64 0 00-51 76c4 21 21 41 48 51 4 1 6 4 5 8-3 15-10 54 5 77 3 3 7 6 12 7 7 1 19 3 29 10 16 11 31 11 31 11s15 0 31-11c10-7 22-9 29-10 5-1 9-4 12-7 15-23 8-62 5-77-1-4 1-7 5-8 27-10 44-30 48-51 5-22-2-64-51-76z" fill="#f0d8b3"/><path d="M383 222c3 6 0 12-5 15-38 21-87 12-108 8h-19c-54 13-90-1-106-9-6-3-8-11-5-16 5-11 16-26 44-33 36-10 61 13 72 25 3 4 8 4 10 0 11-12 37-34 73-25 26 7 38 20 44 35z" fill="#dbbf97"/><path d="M340 184c-37-9-63 16-74 28-2 4-7 4-10 0-11-12-37-37-74-28a64 64 0 00-51 76c4 21 21 41 48 51 4 1 6 4 5 8-3 15-10 54 5 77 3 3 7 6 12 7 7 1 19 3 29 10 16 11 31 11 31 11s15 0 31-11c10-7 22-10 29-11 5-1 9-3 12-6 15-23 8-62 5-77-1-4 1-7 5-8 27-10 44-30 48-51 5-22-2-64-51-76z" stroke="#f0d8b3" stroke-width="7.6" stroke-miterlimit="10"/><path d="M343 381c-1 6-5 13-7 17-3 4-10 4-15 5-7 1-19 3-29 10-16 11-31 11-31 11s-15 0-31-11c-10-7-22-9-29-10-5-1-11-1-14-4-3-4-7-13-8-18 12 3 47 13 61 21 17 10 36 6 44 0 7-5 36-17 59-21z" opacity=".1" fill="#9e763d"/><path d="M189 399c16 5 30 8 41 14 17 12 31 11 31 11s15 0 31-11c9-6 24-9 41-14" stroke="#b29572" stroke-width="7.6" stroke-linecap="round" stroke-linejoin="round"/><g><path d="M290 338l-12-2a200 200 0 00-33 0l-12 2c-2 0-1 5 2 8 3 6 16 13 26 13 11 0 24-7 27-13 2-3 4-8 2-8z" fill="#dbbf97" style="fill-opacity:1.0;fill:rgb(219, 191, 151)"/><path d="M289 341c-2-1-5 1-11 1a172 172 0 00-33-1h-11c-3 0-1 7 1 11 4 5 15 14 26 14 12 0 23-9 27-14 2-3 4-11 1-11z" fill="#fff4e9"/><path d="M289 341l-12-2a189 189 0 00-31 0l-12 2c-2 0 0 4 2 8 4 5 15 12 25 12 11 0 22-7 26-12l2-8z" fill="#3f0a24"/><path d="M278 356c-5 3-11 5-17 5s-12-2-16-5l3 1 13 1h14l3-2z" fill="#b24660"/><path d="M288 345v-2l-12-2a191 191 0 00-29 0l-12 2v2c-2-2-2-4-1-4l12-2a225 225 0 0131 0l12 2c1 0 1 2-1 4z" fill="#040001"/></g><g><path d="M279 284l-12 3c-3 2-8 2-11 0l-12-3c-10 1-15 7-15 17 0 7 4 22 33 22 28 0 32-15 32-22 1-10-5-16-15-17z" fill="#dbbf97"/><g><path d="M256 301c2 4 0 10-4 12-3 2-8 0-11-5-4-6-2-12 2-14s9-1 13 7z" fill="#f0d8b4"/><path d="M255 299c2 4 1 10-3 11-4 2-9 0-11-5-2-4-1-10 2-11 4-2 9 0 12 5z" fill="#674430"/><path d="M255 299l1 2c-3-4-8-6-12-4-3 2-4 6-1 11l-2-3c-2-4-1-10 2-11 4-2 9 0 12 5z" fill="#361609"/></g><g><path d="M268 301c-3 4-1 10 3 12s8 0 11-5c4-6 2-12-2-14-3-2-9-1-12 7z" fill="#f0d8b4"/><path d="M269 299c-3 4-2 10 2 11 4 2 9 0 11-5 3-4 2-10-2-11-4-2-9 0-11 5z" fill="#674430"/><path d="M269 299l-1 2c2-4 7-6 11-4 3 2 4 6 2 11l1-3c3-4 2-10-2-11-4-2-9 0-11 5z" fill="#361609"/></g></g><g><path d="M307 265c0 19 11 34 24 34s24-15 24-34c0-18-11-33-24-33s-24 15-24 33z" fill="#dbbf97"/><g><path d="M308 261c0 18 10 33 23 33s23-15 23-33c0-19-10-34-23-34s-23 15-23 34z" fill="#111"/><path d="M318 244c0 5 6 1 13 1s13 4 13-1c0-3-6-10-13-10s-13 7-13 10z" fill="#f5f5f5"/><path d="M315 268c0 7 6 20 16 20 9 0 16-13 16-20 0-11-7-1-16-1-10 0-16-10-16 1z" fill="#484949"/></g></g><g><path d="M219 265c0 19-11 34-24 34-12 0-24-15-24-34 0-18 12-33 24-33 13 0 24 15 24 33z" fill="#dbbf97"/><g><path d="M218 261c0 18-10 33-23 33-12 0-23-15-23-33 0-19 11-34 23-34 13 0 23 15 23 34z" fill="#111"/><path d="M208 244c0 5-6 1-13 1s-12 4-12-1c0-3 5-10 12-10s13 7 13 10z" fill="#f5f5f5"/><path d="M212 268c0 7-7 20-17 20-9 0-16-13-16-20 0-11 7-1 16-1 10 0 17-10 17 1z" fill="#484949"/></g></g></g><path d="M378 166c-19-1-46-2-67 24-24 29-24 85 21 123 47 39 99-143 46-147z" fill="#9e763d" stroke="#5e421f" stroke-width="7.6" stroke-miterlimit="10"/><path d="M304 225s4-38 39-47" stroke="#bc9259" stroke-width="9.5" stroke-linecap="round" stroke-linejoin="round"/><path d="M378 166c-19-1-46-2-67 24-24 29-24 85 21 123 47 39 99-143 46-147z" stroke="#5e421f" stroke-width="7.6" stroke-miterlimit="10"/><path d="M368 192s-28-8-44 19c-13 22-5 59 16 76 24 20 45-97 28-95z" fill="#edacaa"/><path d="M374 217c-41-21-56 27-56 27-1-12 1-24 6-33 16-27 44-19 44-19 5 0 7 11 6 25z" fill="#db9897"/><path d="M412 278s12-18 8-47c-4-28-19-61-39-59 0 0-17-37-35-45-13-7-21 2-22 9 0 0-8-12-20-11-12 0-17 12-15 24 0 0-12-4-17 10-5 13 13 44 17 65 4 25 7 56 30 77s83 3 93-23z" fill="#e9c9a5"/><path d="M273 177l2-5c-1-11 7-18 20 4 14 22 16 34 21 36 6 4 6-5 6-5-3-12-14-29-21-41l-9-18c5-18 17-12 30 3 11 14 19 35 24 44 4 9 10 4 10 3v-4c-4-15-24-50-24-50 1-11 11-11 27 10 18 25 22 57 28 60s8-3 8-3l-5-17c3-16 16-4 17-3-7-12-16-20-26-19 0 0-17-37-35-45-13-7-21 2-22 9 0 0-8-12-20-11-12 0-17 12-15 24 0 0-12-4-17 10-2 4-1 10 1 18z" fill="#fce3c7"/><path d="M284 208l5 16c4 25 7 56 30 77s83 3 93-23c0 0 12-18 8-47l-3-14s-1 59-44 62c-33 3-63-1-89-71z" fill="#dcb07f"/><path d="M412 278s12-18 8-47c-4-28-19-61-39-59 0 0-17-37-35-45-13-7-21 2-22 9 0 0-8-12-20-11-12 0-17 12-15 24 0 0-12-4-17 10-5 13 13 44 17 65 4 25 7 56 30 77s83 3 93-23zM324 136s23 30 32 60M381 172s10 22 14 40M289 149s21 24 33 59" stroke="#946037" stroke-width="8" stroke-linecap="round" stroke-linejoin="round"/><path d="M438 450s-33-121-34-139c-1-19 3-30 3-30l-9 10-4-13c-1-1-3-2-4-1l-9 9-11-14c-1-1-3-1-4 1l-5 17-18-7c-1 0-3 1-3 3v19l-20-8s22 16 26 34l15 120s15 8 34 8c35 0 43-9 43-9z" fill="#9e763d"/><path d="M379 457s14 4 32 1c22-2 27-8 27-8s-23-81-31-121l-2 4c-3-14-20-29-32-16-8 9-5 34-1 67l7 73z" fill="#bc9259"/><path d="M437 448s-32-119-33-137c-1-12 3-21 5-27M321 302s22 12 25 29l15 117" stroke="#5e421f" stroke-width="8" stroke-linecap="round" stroke-linejoin="round"/><path d="M148 166c19-1 47-2 68 24 23 29 23 85-22 123-47 39-98-143-46-147z" fill="#9e763d" stroke="#5e421f" stroke-width="7.6" stroke-miterlimit="10"/><path d="M222 225s-4-38-39-47" stroke="#bc9259" stroke-width="9.5" stroke-linecap="round" stroke-linejoin="round"/><path d="M148 166c19-1 47-2 68 24 23 29 23 85-22 123-47 39-98-143-46-147z" stroke="#5e421f" stroke-width="7.6" stroke-miterlimit="10"/><path d="M158 192s28-8 44 19c13 22 5 59-15 76-25 20-45-97-29-95z" fill="#edacaa"/><path d="M153 217c40-21 55 27 55 27 1-12 0-24-6-33-16-27-44-19-44-19-5 0-6 11-5 25z" fill="#db9897"/><path d="M114 278s-11-18-7-47c4-28 18-61 39-59 0 0 16-37 34-45 13-7 22 2 22 9 0 0 8-12 20-11 13 0 17 12 16 24 0 0 12-4 17 10 4 13-14 44-18 65-4 25-7 56-30 77s-83 3-93-23z" fill="#e9c9a5"/><path d="M253 177l-1-5c0-11-8-18-21 4-14 22-16 34-21 36-6 4-5-5-5-5 3-12 13-29 20-41l9-18c-5-18-17-12-29 3-12 14-20 35-25 44-4 9-10 4-10 3v-4c5-15 24-50 24-50-1-11-11-11-26 10-19 25-23 57-29 60s-8-3-8-3l5-17c-3-16-16-4-17-3 7-12 16-20 26-19 0 0 17-37 35-45 13-7 21 2 22 9 0 0 8-12 20-11 12 0 17 12 15 24 0 0 12-4 17 10 2 4 1 10-1 18z" fill="#fce3c7"/><path d="M242 208l-5 16c-4 25-7 56-30 77s-83 3-93-23c0 0-11-18-7-47l2-14s1 59 44 62c34 3 63-1 89-71z" fill="#dcb07f"/><path d="M114 278s-11-18-7-47c4-28 18-61 39-59 0 0 16-37 34-45 13-7 22 2 22 9 0 0 8-12 20-11 13 0 17 12 16 24 0 0 12-4 17 10 4 13-14 44-18 65-4 25-7 56-30 77s-83 3-93-23zM202 136s-23 30-32 60" stroke="#946037" stroke-width="8" stroke-linecap="round" stroke-linejoin="round"/><g stroke="#946037" stroke-width="8" stroke-linecap="round" stroke-linejoin="round"><path d="M146 172s-11 22-15 40"/></g><g stroke="#946037" stroke-width="8" stroke-linecap="round" stroke-linejoin="round"><path d="M238 149s-21 24-34 59"/></g><g><path d="M89 450s32-121 33-139c1-19-3-30-3-30l10 10 3-13c1-1 3-2 5-1l8 9 11-14c1-1 4-1 4 1l5 17 18-7c1 0 3 1 3 3v19l20-8s-22 16-26 34l-15 120s-14 8-34 8c-34 0-42-9-42-9z" fill="#9e763d"/><path d="M147 457s-14 4-32 1c-22-2-26-8-26-8s22-81 30-121l2 4c3-14 21-29 32-16 9 9 5 34 1 67l-7 73z" fill="#bc9259"/><path d="M90 448s31-119 32-137c1-12-2-21-5-27M205 302s-22 12-25 29l-15 117" stroke="#5e421f" stroke-width="8" stroke-linecap="round" stroke-linejoin="round"/></g></svg>